<?xml version="1.0" encoding="UTF-8" standalone="no"?><svg xmlns="http://www.w3.org/2000/svg" xmlns:xlink="http://www.w3.org/1999/xlink" contentScriptType="application/ecmascript" contentStyleType="text/css" height="571px" preserveAspectRatio="none" style="width:810px;height:571px;background:#FFFFFF;" version="1.1" viewBox="0 0 810 571" width="810px" zoomAndPan="magnify"><defs><filter height="300%" id="f19p791wlx8oos" width="300%" x="-1" y="-1"><feGaussianBlur result="blurOut" stdDeviation="2.0"/><feColorMatrix in="blurOut" result="blurOut2" type="matrix" values="0 0 0 0 0 0 0 0 0 0 0 0 0 0 0 0 0 0 .4 0"/><feOffset dx="4.0" dy="4.0" in="blurOut2" result="blurOut3"/><feBlend in="SourceGraphic" in2="blurOut3" mode="normal"/></filter></defs><g><!--MD5=[363855e03bf710ccd6d93fb2cd5e1a78]
class TimeSeriesDataPoint--><rect codeLine="3" fill="#FEFECE" filter="url(#f19p791wlx8oos)" height="73.6094" id="TimeSeriesDataPoint" style="stroke:#A80036;stroke-width:1.5;" width="155" x="386" y="484"/><ellipse cx="401" cy="500" fill="#ADD1B2" rx="11" ry="11" style="stroke:#A80036;stroke-width:1.0;"/><path d="M403.4688,505.875 Q402.8906,506.1875 402.25,506.3438 Q401.6094,506.5 400.9063,506.5 Q398.4063,506.5 397.0781,504.8281 Q395.7656,503.1563 395.7656,500 Q395.7656,496.8438 397.0781,495.1719 Q398.4063,493.5 400.9063,493.5 Q401.6094,493.5 402.25,493.6563 Q402.9063,493.8125 403.4688,494.125 L403.4688,496.9219 Q402.8438,496.3594 402.25,496.0938 Q401.6563,495.8125 401.0313,495.8125 Q399.6875,495.8125 399,496.875 Q398.3125,497.9375 398.3125,500 Q398.3125,502.0781 399,503.1406 Q399.6875,504.1875 401.0313,504.1875 Q401.6563,504.1875 402.25,503.9219 Q402.8438,503.6563 403.4688,503.0781 L403.4688,505.875 Z " fill="#000000"/><text fill="#000000" font-family="sans-serif" font-size="12" lengthAdjust="spacing" textLength="123" x="415" y="504.1543">TimeSeriesDataPoint</text><line style="stroke:#A80036;stroke-width:1.5;" x1="387" x2="540" y1="516" y2="516"/><text fill="#000000" font-family="sans-serif" font-size="11" lengthAdjust="spacing" textLength="87" x="392" y="530.2104">timestamp : tm</text><text fill="#000000" font-family="sans-serif" font-size="11" lengthAdjust="spacing" textLength="68" x="392" y="543.0151">value : float</text><line style="stroke:#A80036;stroke-width:1.5;" x1="387" x2="540" y1="549.6094" y2="549.6094"/><!--MD5=[6f866fe6fd531f0bbeeccfcfe45ad4f7]
class DisplayData--><rect codeLine="8" fill="#FEFECE" filter="url(#f19p791wlx8oos)" height="86.4141" id="DisplayData" style="stroke:#A80036;stroke-width:1.5;" width="276" x="159.5" y="7"/><ellipse cx="257.75" cy="23" fill="#ADD1B2" rx="11" ry="11" style="stroke:#A80036;stroke-width:1.0;"/><path d="M260.2188,28.875 Q259.6406,29.1875 259,29.3438 Q258.3594,29.5 257.6563,29.5 Q255.1563,29.5 253.8281,27.8281 Q252.5156,26.1563 252.5156,23 Q252.5156,19.8438 253.8281,18.1719 Q255.1563,16.5 257.6563,16.5 Q258.3594,16.5 259,16.6563 Q259.6563,16.8125 260.2188,17.125 L260.2188,19.9219 Q259.5938,19.3594 259,19.0938 Q258.4063,18.8125 257.7813,18.8125 Q256.4375,18.8125 255.75,19.875 Q255.0625,20.9375 255.0625,23 Q255.0625,25.0781 255.75,26.1406 Q256.4375,27.1875 257.7813,27.1875 Q258.4063,27.1875 259,26.9219 Q259.5938,26.6563 260.2188,26.0781 L260.2188,28.875 Z " fill="#000000"/><text fill="#000000" font-family="sans-serif" font-size="12" lengthAdjust="spacing" textLength="71" x="278.25" y="27.1543">DisplayData</text><line style="stroke:#A80036;stroke-width:1.5;" x1="160.5" x2="434.5" y1="39" y2="39"/><text fill="#000000" font-family="sans-serif" font-size="11" lengthAdjust="spacing" textLength="264" x="165.5" y="53.2104">dailyPredictions : std::vector&lt;DailyPrediction&gt;</text><text fill="#000000" font-family="sans-serif" font-size="11" lengthAdjust="spacing" textLength="224" x="165.5" y="66.0151">highestTideLevel : TimeSeriesDataPoint</text><text fill="#000000" font-family="sans-serif" font-size="11" lengthAdjust="spacing" textLength="219" x="165.5" y="78.8198">lowestTideLevel : TimeSeriesDataPoint</text><line style="stroke:#A80036;stroke-width:1.5;" x1="160.5" x2="434.5" y1="85.4141" y2="85.4141"/><!--MD5=[8cb3f09557db5d57493eb5f1f62e833c]
class DailyPrediction--><rect codeLine="14" fill="#FEFECE" filter="url(#f19p791wlx8oos)" height="99.2188" id="DailyPrediction" style="stroke:#A80036;stroke-width:1.5;" width="229" x="183" y="153"/><ellipse cx="248.75" cy="169" fill="#ADD1B2" rx="11" ry="11" style="stroke:#A80036;stroke-width:1.0;"/><path d="M251.2188,174.875 Q250.6406,175.1875 250,175.3438 Q249.3594,175.5 248.6563,175.5 Q246.1563,175.5 244.8281,173.8281 Q243.5156,172.1563 243.5156,169 Q243.5156,165.8438 244.8281,164.1719 Q246.1563,162.5 248.6563,162.5 Q249.3594,162.5 250,162.6563 Q250.6563,162.8125 251.2188,163.125 L251.2188,165.9219 Q250.5938,165.3594 250,165.0938 Q249.4063,164.8125 248.7813,164.8125 Q247.4375,164.8125 246.75,165.875 Q246.0625,166.9375 246.0625,169 Q246.0625,171.0781 246.75,172.1406 Q247.4375,173.1875 248.7813,173.1875 Q249.4063,173.1875 250,172.9219 Q250.5938,172.6563 251.2188,172.0781 L251.2188,174.875 Z " fill="#000000"/><text fill="#000000" font-family="sans-serif" font-size="12" lengthAdjust="spacing" textLength="89" x="269.25" y="173.1543">DailyPrediction</text><line style="stroke:#A80036;stroke-width:1.5;" x1="184" x2="411" y1="185" y2="185"/><text fill="#000000" font-family="sans-serif" font-size="11" lengthAdjust="spacing" textLength="52" x="189" y="199.2104">date : tm</text><text fill="#000000" font-family="sans-serif" font-size="11" lengthAdjust="spacing" textLength="125" x="189" y="212.0151">lunarData : LunarData</text><text fill="#000000" font-family="sans-serif" font-size="11" lengthAdjust="spacing" textLength="109" x="189" y="224.8198">tideData : TideData</text><text fill="#000000" font-family="sans-serif" font-size="11" lengthAdjust="spacing" textLength="217" x="189" y="237.6245">weatherData : AggregateWeatherData</text><line style="stroke:#A80036;stroke-width:1.5;" x1="184" x2="411" y1="244.2188" y2="244.2188"/><!--MD5=[9f9c21cbe19b10e88a716e6574e05086]
class LunarData--><rect codeLine="21" fill="#FEFECE" filter="url(#f19p791wlx8oos)" height="112.0234" id="LunarData" style="stroke:#A80036;stroke-width:1.5;" width="125" x="7" y="312"/><ellipse cx="35.5" cy="328" fill="#ADD1B2" rx="11" ry="11" style="stroke:#A80036;stroke-width:1.0;"/><path d="M37.9688,333.875 Q37.3906,334.1875 36.75,334.3438 Q36.1094,334.5 35.4063,334.5 Q32.9063,334.5 31.5781,332.8281 Q30.2656,331.1563 30.2656,328 Q30.2656,324.8438 31.5781,323.1719 Q32.9063,321.5 35.4063,321.5 Q36.1094,321.5 36.75,321.6563 Q37.4063,321.8125 37.9688,322.125 L37.9688,324.9219 Q37.3438,324.3594 36.75,324.0938 Q36.1563,323.8125 35.5313,323.8125 Q34.1875,323.8125 33.5,324.875 Q32.8125,325.9375 32.8125,328 Q32.8125,330.0781 33.5,331.1406 Q34.1875,332.1875 35.5313,332.1875 Q36.1563,332.1875 36.75,331.9219 Q37.3438,331.6563 37.9688,331.0781 L37.9688,333.875 Z " fill="#000000"/><text fill="#000000" font-family="sans-serif" font-size="12" lengthAdjust="spacing" textLength="63" x="52.5" y="332.1543">LunarData</text><line style="stroke:#A80036;stroke-width:1.5;" x1="8" x2="131" y1="344" y2="344"/><text fill="#000000" font-family="sans-serif" font-size="11" lengthAdjust="spacing" textLength="78" x="13" y="358.2104">julianDay : int</text><text fill="#000000" font-family="sans-serif" font-size="11" lengthAdjust="spacing" textLength="101" x="13" y="371.0151">sunPosition : float</text><text fill="#000000" font-family="sans-serif" font-size="11" lengthAdjust="spacing" textLength="113" x="13" y="383.8198">moonPosition : float</text><text fill="#000000" font-family="sans-serif" font-size="11" lengthAdjust="spacing" textLength="73" x="13" y="396.6245">visible : float</text><text fill="#000000" font-family="sans-serif" font-size="11" lengthAdjust="spacing" textLength="75" x="13" y="409.4292">segment : int</text><line style="stroke:#A80036;stroke-width:1.5;" x1="8" x2="131" y1="416.0234" y2="416.0234"/><!--MD5=[6e20ea48e1a04a437b929bd848bad75b]
class TideData--><rect codeLine="29" fill="#FEFECE" filter="url(#f19p791wlx8oos)" height="86.4141" id="TideData" style="stroke:#A80036;stroke-width:1.5;" width="260" x="167.5" y="325"/><ellipse cx="266.75" cy="341" fill="#ADD1B2" rx="11" ry="11" style="stroke:#A80036;stroke-width:1.0;"/><path d="M269.2188,346.875 Q268.6406,347.1875 268,347.3438 Q267.3594,347.5 266.6563,347.5 Q264.1563,347.5 262.8281,345.8281 Q261.5156,344.1563 261.5156,341 Q261.5156,337.8438 262.8281,336.1719 Q264.1563,334.5 266.6563,334.5 Q267.3594,334.5 268,334.6563 Q268.6563,334.8125 269.2188,335.125 L269.2188,337.9219 Q268.5938,337.3594 268,337.0938 Q267.4063,336.8125 266.7813,336.8125 Q265.4375,336.8125 264.75,337.875 Q264.0625,338.9375 264.0625,341 Q264.0625,343.0781 264.75,344.1406 Q265.4375,345.1875 266.7813,345.1875 Q267.4063,345.1875 268,344.9219 Q268.5938,344.6563 269.2188,344.0781 L269.2188,346.875 Z " fill="#000000"/><text fill="#000000" font-family="sans-serif" font-size="12" lengthAdjust="spacing" textLength="53" x="287.25" y="345.1543">TideData</text><line style="stroke:#A80036;stroke-width:1.5;" x1="168.5" x2="426.5" y1="357" y2="357"/><text fill="#000000" font-family="sans-serif" font-size="11" lengthAdjust="spacing" textLength="224" x="173.5" y="371.2104">highestTideLevel : TimeSeriesDataPoint</text><text fill="#000000" font-family="sans-serif" font-size="11" lengthAdjust="spacing" textLength="219" x="173.5" y="384.0151">lowestTideLevel : TimeSeriesDataPoint</text><text fill="#000000" font-family="sans-serif" font-size="11" lengthAdjust="spacing" textLength="248" x="173.5" y="396.8198">tideLevels : std::vector&lt;TimeSeriesDatum&gt;</text><line style="stroke:#A80036;stroke-width:1.5;" x1="168.5" x2="426.5" y1="403.4141" y2="403.4141"/><!--MD5=[dd430b671f247037c3d3af64e9fb01da]
class WeatherData--><rect codeLine="35" fill="#FEFECE" filter="url(#f19p791wlx8oos)" height="99.2188" id="WeatherData" style="stroke:#A80036;stroke-width:1.5;" width="334" x="462.5" y="318.5"/><ellipse cx="585.75" cy="334.5" fill="#ADD1B2" rx="11" ry="11" style="stroke:#A80036;stroke-width:1.0;"/><path d="M588.2188,340.375 Q587.6406,340.6875 587,340.8438 Q586.3594,341 585.6563,341 Q583.1563,341 581.8281,339.3281 Q580.5156,337.6563 580.5156,334.5 Q580.5156,331.3438 581.8281,329.6719 Q583.1563,328 585.6563,328 Q586.3594,328 587,328.1563 Q587.6563,328.3125 588.2188,328.625 L588.2188,331.4219 Q587.5938,330.8594 587,330.5938 Q586.4063,330.3125 585.7813,330.3125 Q584.4375,330.3125 583.75,331.375 Q583.0625,332.4375 583.0625,334.5 Q583.0625,336.5781 583.75,337.6406 Q584.4375,338.6875 585.7813,338.6875 Q586.4063,338.6875 587,338.4219 Q587.5938,338.1563 588.2188,337.5781 L588.2188,340.375 Z " fill="#000000"/><text fill="#000000" font-family="sans-serif" font-size="12" lengthAdjust="spacing" textLength="79" x="606.25" y="338.6543">WeatherData</text><line style="stroke:#A80036;stroke-width:1.5;" x1="463.5" x2="795.5" y1="350.5" y2="350.5"/><text fill="#000000" font-family="sans-serif" font-size="11" lengthAdjust="spacing" textLength="227" x="468.5" y="364.7104">highTemperature : TimeSeriesDataPoint</text><text fill="#000000" font-family="sans-serif" font-size="11" lengthAdjust="spacing" textLength="222" x="468.5" y="377.5151">lowTemperature : TimeSeriesDataPoint</text><text fill="#000000" font-family="sans-serif" font-size="11" lengthAdjust="spacing" textLength="268" x="468.5" y="390.3198">temperatures : std::vector&lt;TimeSeriesDatum&gt;</text><text fill="#000000" font-family="sans-serif" font-size="11" lengthAdjust="spacing" textLength="322" x="468.5" y="403.1245">apparentTemperatures : std::vector&lt;TimeSeriesDatum&gt;</text><line style="stroke:#A80036;stroke-width:1.5;" x1="463.5" x2="795.5" y1="409.7188" y2="409.7188"/><!--MD5=[aa4897ff8fa2baa211771b0164f91e8a]
reverse link DisplayData to DailyPrediction--><path codeLine="42" d="M297.5,106.35 C297.5,121.6 297.5,138.02 297.5,152.86 " fill="none" id="DisplayData-backto-DailyPrediction" style="stroke:#A80036;stroke-width:1.0;"/><polygon fill="#FFFFFF" points="297.5,93.32,293.5,99.32,297.5,105.32,301.5,99.32,297.5,93.32" style="stroke:#A80036;stroke-width:1.0;"/><text fill="#000000" font-family="sans-serif" font-size="13" lengthAdjust="spacing" textLength="8" x="288.8625" y="113.4639">1</text><text fill="#000000" font-family="sans-serif" font-size="13" lengthAdjust="spacing" textLength="37" x="257.8984" y="141.8855">many</text><!--MD5=[293774c5be236dd36d0ff7e382430ddf]
reverse link DailyPrediction to LunarData--><path codeLine="43" d="M219.03,259.77 C190.72,280.07 159.16,302.71 132.35,321.93 " fill="none" id="DailyPrediction-backto-LunarData" style="stroke:#A80036;stroke-width:1.0;"/><polygon fill="#A80036" points="229.71,252.11,222.5032,252.3581,219.9604,259.106,227.1672,258.8579,229.71,252.11" style="stroke:#A80036;stroke-width:1.0;"/><!--MD5=[9739939ea0886aed13fcdefb72e4b4c6]
reverse link DailyPrediction to TideData--><path codeLine="44" d="M297.5,265.24 C297.5,285.17 297.5,306.78 297.5,324.94 " fill="none" id="DailyPrediction-backto-TideData" style="stroke:#A80036;stroke-width:1.0;"/><polygon fill="#A80036" points="297.5,252.11,293.5,258.11,297.5,264.11,301.5,258.11,297.5,252.11" style="stroke:#A80036;stroke-width:1.0;"/><!--MD5=[891ada115d4f758f644102ad708b2f09]
reverse link DailyPrediction to WeatherData--><path codeLine="45" d="M408.09,257.96 C447.79,277.51 492.27,299.42 530.88,318.43 " fill="none" id="DailyPrediction-backto-WeatherData" style="stroke:#A80036;stroke-width:1.0;"/><polygon fill="#A80036" points="396.21,252.11,399.8276,258.348,406.9772,257.4079,403.3596,251.1699,396.21,252.11" style="stroke:#A80036;stroke-width:1.0;"/><!--MD5=[75a6d29e15a17f218163a13c464b68f1]
reverse link TideData to TimeSeriesDataPoint--><path codeLine="46" d="M353.41,419.85 C376.46,440.83 402.65,464.65 423.7,483.8 " fill="none" id="TideData-backto-TimeSeriesDataPoint" style="stroke:#A80036;stroke-width:1.0;"/><polygon fill="#FFFFFF" points="343.74,411.06,345.4931,418.0548,352.6241,419.1268,350.871,412.1321,343.74,411.06" style="stroke:#A80036;stroke-width:1.0;"/><text fill="#000000" font-family="sans-serif" font-size="13" lengthAdjust="spacing" textLength="8" x="342.736" y="431.4776">1</text><text fill="#000000" font-family="sans-serif" font-size="13" lengthAdjust="spacing" textLength="37" x="376.3153" y="472.9513">many</text><!--MD5=[d82db377f9c7ce946bd62390be6696fc]
reverse link WeatherData to TimeSeriesDataPoint--><path codeLine="47" d="M566.16,426.62 C544.98,445.88 521.99,466.79 503.15,483.94 " fill="none" id="WeatherData-backto-TimeSeriesDataPoint" style="stroke:#A80036;stroke-width:1.0;"/><polygon fill="#FFFFFF" points="576.06,417.61,568.9307,418.6931,567.1885,425.6906,574.3178,424.6075,576.06,417.61" style="stroke:#A80036;stroke-width:1.0;"/><text fill="#000000" font-family="sans-serif" font-size="13" lengthAdjust="spacing" textLength="8" x="559.9825" y="437.7019">1</text><text fill="#000000" font-family="sans-serif" font-size="13" lengthAdjust="spacing" textLength="37" x="470.0495" y="472.8394">many</text><!--MD5=[e2b58cdac404d3cf4d301e31164d7a0c]
@startuml
'https://plantuml.com/class-diagram

class TimeSeriesDataPoint {
    timestamp : tm
    value : float
}

class DisplayData {
    dailyPredictions : std::vector<DailyPrediction>
    highestTideLevel : TimeSeriesDataPoint
    lowestTideLevel : TimeSeriesDataPoint
}

class DailyPrediction {
    date : tm
    lunarData : LunarData
    tideData : TideData
    weatherData : AggregateWeatherData
}

class LunarData {
    julianDay : int
    sunPosition : float
    moonPosition : float
    visible : float
    segment : int
}

class TideData {
    highestTideLevel : TimeSeriesDataPoint
    lowestTideLevel : TimeSeriesDataPoint
    tideLevels : std::vector<TimeSeriesDatum>
}

class WeatherData {
    highTemperature : TimeSeriesDataPoint
    lowTemperature : TimeSeriesDataPoint
    temperatures : std::vector<TimeSeriesDatum>
    apparentTemperatures : std::vector<TimeSeriesDatum>
}

DisplayData "1" o- - "many" DailyPrediction
DailyPrediction *- - LunarData
DailyPrediction *- - TideData
DailyPrediction *- - WeatherData
TideData "1" o- - "many" TimeSeriesDataPoint
WeatherData "1" o- - "many" TimeSeriesDataPoint


@enduml

@startuml

class TimeSeriesDataPoint {
    timestamp : tm
    value : float
}

class DisplayData {
    dailyPredictions : std::vector<DailyPrediction>
    highestTideLevel : TimeSeriesDataPoint
    lowestTideLevel : TimeSeriesDataPoint
}

class DailyPrediction {
    date : tm
    lunarData : LunarData
    tideData : TideData
    weatherData : AggregateWeatherData
}

class LunarData {
    julianDay : int
    sunPosition : float
    moonPosition : float
    visible : float
    segment : int
}

class TideData {
    highestTideLevel : TimeSeriesDataPoint
    lowestTideLevel : TimeSeriesDataPoint
    tideLevels : std::vector<TimeSeriesDatum>
}

class WeatherData {
    highTemperature : TimeSeriesDataPoint
    lowTemperature : TimeSeriesDataPoint
    temperatures : std::vector<TimeSeriesDatum>
    apparentTemperatures : std::vector<TimeSeriesDatum>
}

DisplayData "1" o- - "many" DailyPrediction
DailyPrediction *- - LunarData
DailyPrediction *- - TideData
DailyPrediction *- - WeatherData
TideData "1" o- - "many" TimeSeriesDataPoint
WeatherData "1" o- - "many" TimeSeriesDataPoint


@enduml

PlantUML version 1.2021.11(Sat Oct 02 06:26:11 PDT 2021)
(GPL source distribution)
Java Runtime: OpenJDK Runtime Environment
JVM: OpenJDK 64-Bit Server VM
Default Encoding: UTF-8
Language: en
Country: CA
--></g></svg>