<?xml version="1.0" encoding="UTF-8" standalone="no"?><svg xmlns="http://www.w3.org/2000/svg" xmlns:xlink="http://www.w3.org/1999/xlink" contentScriptType="application/ecmascript" contentStyleType="text/css" height="794px" preserveAspectRatio="none" style="width:1275px;height:794px;background:#FFFFFF;" version="1.1" viewBox="0 0 1275 794" width="1275px" zoomAndPan="magnify"><defs><filter height="300%" id="f1txav3zidyd97" width="300%" x="-1" y="-1"><feGaussianBlur result="blurOut" stdDeviation="2.0"/><feColorMatrix in="blurOut" result="blurOut2" type="matrix" values="0 0 0 0 0 0 0 0 0 0 0 0 0 0 0 0 0 0 .4 0"/><feOffset dx="4.0" dy="4.0" in="blurOut2" result="blurOut3"/><feBlend in="SourceGraphic" in2="blurOut3" mode="normal"/></filter></defs><g><rect fill="#FFFFFF" filter="url(#f1txav3zidyd97)" height="414.114" style="stroke:#000000;stroke-width:2.0;" width="594.5" x="666.5" y="319.6559"/><rect fill="#FFFFFF" filter="url(#f1txav3zidyd97)" height="85.453" style="stroke:#000000;stroke-width:2.0;" width="564.5" x="686.5" y="343.8069"/><rect fill="#FFFFFF" filter="url(#f1txav3zidyd97)" height="164.906" style="stroke:#000000;stroke-width:2.0;" width="459" x="676.5" y="443.2599"/><rect fill="#FFFFFF" filter="url(#f1txav3zidyd97)" height="46.302" style="stroke:#000000;stroke-width:2.0;" width="439" x="686.5" y="554.8639"/><rect fill="#FFFFFF" filter="url(#f1txav3zidyd97)" height="104.604" style="stroke:#000000;stroke-width:2.0;" width="439" x="686.5" y="622.1659"/><line style="stroke:#A80036;stroke-width:1.0;stroke-dasharray:5.0,5.0;" x1="54" x2="54" y1="40.2969" y2="750.7699"/><line style="stroke:#A80036;stroke-width:1.0;stroke-dasharray:5.0,5.0;" x1="213.5" x2="213.5" y1="40.2969" y2="750.7699"/><line style="stroke:#A80036;stroke-width:1.0;stroke-dasharray:5.0,5.0;" x1="343.5" x2="343.5" y1="40.2969" y2="750.7699"/><line style="stroke:#A80036;stroke-width:1.0;stroke-dasharray:5.0,5.0;" x1="473.5" x2="473.5" y1="40.2969" y2="750.7699"/><line style="stroke:#A80036;stroke-width:1.0;stroke-dasharray:5.0,5.0;" x1="613.5" x2="613.5" y1="40.2969" y2="750.7699"/><line style="stroke:#A80036;stroke-width:1.0;stroke-dasharray:5.0,5.0;" x1="762.5" x2="762.5" y1="40.2969" y2="750.7699"/><line style="stroke:#A80036;stroke-width:1.0;stroke-dasharray:5.0,5.0;" x1="961.5" x2="961.5" y1="40.2969" y2="750.7699"/><line style="stroke:#A80036;stroke-width:1.0;stroke-dasharray:5.0,5.0;" x1="1074.5" x2="1074.5" y1="40.2969" y2="750.7699"/><rect fill="#FEFECE" filter="url(#f1txav3zidyd97)" height="30.2969" style="stroke:#A80036;stroke-width:1.5;" width="94" x="5" y="5"/><text fill="#000000" font-family="sans-serif" font-size="14" lengthAdjust="spacing" textLength="80" x="12" y="24.9951">Application</text><rect fill="#FEFECE" filter="url(#f1txav3zidyd97)" height="30.2969" style="stroke:#A80036;stroke-width:1.5;" width="94" x="5" y="749.7699"/><text fill="#000000" font-family="sans-serif" font-size="14" lengthAdjust="spacing" textLength="80" x="12" y="769.765">Application</text><rect fill="#FEFECE" filter="url(#f1txav3zidyd97)" height="30.2969" style="stroke:#A80036;stroke-width:1.5;" width="111" x="156.5" y="5"/><text fill="#000000" font-family="sans-serif" font-size="14" lengthAdjust="spacing" textLength="97" x="163.5" y="24.9951">DataManager</text><rect fill="#FEFECE" filter="url(#f1txav3zidyd97)" height="30.2969" style="stroke:#A80036;stroke-width:1.5;" width="111" x="156.5" y="749.7699"/><text fill="#000000" font-family="sans-serif" font-size="14" lengthAdjust="spacing" textLength="97" x="163.5" y="769.765">DataManager</text><rect fill="#FEFECE" filter="url(#f1txav3zidyd97)" height="30.2969" style="stroke:#A80036;stroke-width:1.5;" width="121" x="281.5" y="5"/><text fill="#000000" font-family="sans-serif" font-size="14" lengthAdjust="spacing" textLength="107" x="288.5" y="24.9951">LunarRetriever</text><rect fill="#FEFECE" filter="url(#f1txav3zidyd97)" height="30.2969" style="stroke:#A80036;stroke-width:1.5;" width="121" x="281.5" y="749.7699"/><text fill="#000000" font-family="sans-serif" font-size="14" lengthAdjust="spacing" textLength="107" x="288.5" y="769.765">LunarRetriever</text><rect fill="#FEFECE" filter="url(#f1txav3zidyd97)" height="30.2969" style="stroke:#A80036;stroke-width:1.5;" width="111" x="416.5" y="5"/><text fill="#000000" font-family="sans-serif" font-size="14" lengthAdjust="spacing" textLength="97" x="423.5" y="24.9951">TideRetriever</text><rect fill="#FEFECE" filter="url(#f1txav3zidyd97)" height="30.2969" style="stroke:#A80036;stroke-width:1.5;" width="111" x="416.5" y="749.7699"/><text fill="#000000" font-family="sans-serif" font-size="14" lengthAdjust="spacing" textLength="97" x="423.5" y="769.765">TideRetriever</text><rect fill="#FEFECE" filter="url(#f1txav3zidyd97)" height="30.2969" style="stroke:#A80036;stroke-width:1.5;" width="141" x="541.5" y="5"/><text fill="#000000" font-family="sans-serif" font-size="14" lengthAdjust="spacing" textLength="127" x="548.5" y="24.9951">WeatherRetriever</text><rect fill="#FEFECE" filter="url(#f1txav3zidyd97)" height="30.2969" style="stroke:#A80036;stroke-width:1.5;" width="141" x="541.5" y="749.7699"/><text fill="#000000" font-family="sans-serif" font-size="14" lengthAdjust="spacing" textLength="127" x="548.5" y="769.765">WeatherRetriever</text><rect fill="#FEFECE" filter="url(#f1txav3zidyd97)" height="30.2969" style="stroke:#A80036;stroke-width:1.5;" width="129" x="696.5" y="5"/><text fill="#000000" font-family="sans-serif" font-size="14" lengthAdjust="spacing" textLength="115" x="703.5" y="24.9951">DisplayManager</text><rect fill="#FEFECE" filter="url(#f1txav3zidyd97)" height="30.2969" style="stroke:#A80036;stroke-width:1.5;" width="129" x="696.5" y="749.7699"/><text fill="#000000" font-family="sans-serif" font-size="14" lengthAdjust="spacing" textLength="115" x="703.5" y="769.765">DisplayManager</text><rect fill="#FEFECE" filter="url(#f1txav3zidyd97)" height="30.2969" style="stroke:#A80036;stroke-width:1.5;" width="121" x="899.5" y="5"/><text fill="#000000" font-family="sans-serif" font-size="14" lengthAdjust="spacing" textLength="107" x="906.5" y="24.9951">DailyPrediction</text><rect fill="#FEFECE" filter="url(#f1txav3zidyd97)" height="30.2969" style="stroke:#A80036;stroke-width:1.5;" width="121" x="899.5" y="749.7699"/><text fill="#000000" font-family="sans-serif" font-size="14" lengthAdjust="spacing" textLength="107" x="906.5" y="769.765">DailyPrediction</text><rect fill="#FEFECE" filter="url(#f1txav3zidyd97)" height="30.2969" style="stroke:#A80036;stroke-width:1.5;" width="77" x="1034.5" y="5"/><text fill="#000000" font-family="sans-serif" font-size="14" lengthAdjust="spacing" textLength="63" x="1041.5" y="24.9951">graphLib</text><rect fill="#FEFECE" filter="url(#f1txav3zidyd97)" height="30.2969" style="stroke:#A80036;stroke-width:1.5;" width="77" x="1034.5" y="749.7699"/><text fill="#000000" font-family="sans-serif" font-size="14" lengthAdjust="spacing" textLength="63" x="1041.5" y="769.765">graphLib</text><polygon fill="#A80036" points="202,67.4479,212,71.4479,202,75.4479,206,71.4479" style="stroke:#A80036;stroke-width:1.0;"/><line style="stroke:#A80036;stroke-width:1.0;" x1="54" x2="208" y1="71.4479" y2="71.4479"/><text fill="#000000" font-family="sans-serif" font-size="13" font-weight="bold" lengthAdjust="spacing" textLength="9" x="61" y="66.3783">1</text><text fill="#000000" font-family="sans-serif" font-size="13" lengthAdjust="spacing" textLength="123" x="74" y="66.3783">BuildDisplayData()</text><polygon fill="#A80036" points="332,96.5989,342,100.5989,332,104.5989,336,100.5989" style="stroke:#A80036;stroke-width:1.0;"/><line style="stroke:#A80036;stroke-width:1.0;" x1="214" x2="338" y1="100.5989" y2="100.5989"/><text fill="#000000" font-family="sans-serif" font-size="13" font-weight="bold" lengthAdjust="spacing" textLength="9" x="221" y="95.5293">2</text><text fill="#000000" font-family="sans-serif" font-size="13" lengthAdjust="spacing" textLength="51" x="234" y="95.5293">retrieve</text><polygon fill="#A80036" points="225,125.7499,215,129.7499,225,133.7499,221,129.7499" style="stroke:#A80036;stroke-width:1.0;"/><line style="stroke:#A80036;stroke-width:1.0;" x1="219" x2="343" y1="129.7499" y2="129.7499"/><text fill="#000000" font-family="sans-serif" font-size="13" font-weight="bold" lengthAdjust="spacing" textLength="9" x="231" y="124.6803">3</text><text fill="#000000" font-family="sans-serif" font-size="13" lengthAdjust="spacing" textLength="67" x="244" y="124.6803">LunarData</text><polygon fill="#A80036" points="462,154.9009,472,158.9009,462,162.9009,466,158.9009" style="stroke:#A80036;stroke-width:1.0;"/><line style="stroke:#A80036;stroke-width:1.0;" x1="214" x2="468" y1="158.9009" y2="158.9009"/><text fill="#000000" font-family="sans-serif" font-size="13" font-weight="bold" lengthAdjust="spacing" textLength="9" x="221" y="153.8313">4</text><text fill="#000000" font-family="sans-serif" font-size="13" lengthAdjust="spacing" textLength="51" x="234" y="153.8313">retrieve</text><polygon fill="#A80036" points="225,184.0519,215,188.0519,225,192.0519,221,188.0519" style="stroke:#A80036;stroke-width:1.0;"/><line style="stroke:#A80036;stroke-width:1.0;" x1="219" x2="473" y1="188.0519" y2="188.0519"/><text fill="#000000" font-family="sans-serif" font-size="13" font-weight="bold" lengthAdjust="spacing" textLength="9" x="231" y="182.9823">5</text><text fill="#000000" font-family="sans-serif" font-size="13" lengthAdjust="spacing" textLength="59" x="244" y="182.9823">TideData</text><polygon fill="#A80036" points="602,213.2029,612,217.2029,602,221.2029,606,217.2029" style="stroke:#A80036;stroke-width:1.0;"/><line style="stroke:#A80036;stroke-width:1.0;" x1="214" x2="608" y1="217.2029" y2="217.2029"/><text fill="#000000" font-family="sans-serif" font-size="13" font-weight="bold" lengthAdjust="spacing" textLength="9" x="221" y="212.1333">6</text><text fill="#000000" font-family="sans-serif" font-size="13" lengthAdjust="spacing" textLength="51" x="234" y="212.1333">retrieve</text><polygon fill="#A80036" points="225,242.3539,215,246.3539,225,250.3539,221,246.3539" style="stroke:#A80036;stroke-width:1.0;"/><line style="stroke:#A80036;stroke-width:1.0;" x1="219" x2="613" y1="246.3539" y2="246.3539"/><text fill="#000000" font-family="sans-serif" font-size="13" font-weight="bold" lengthAdjust="spacing" textLength="9" x="231" y="241.2843">7</text><text fill="#000000" font-family="sans-serif" font-size="13" lengthAdjust="spacing" textLength="86" x="244" y="241.2843">WeatherData</text><polygon fill="#A80036" points="65,271.5049,55,275.5049,65,279.5049,61,275.5049" style="stroke:#A80036;stroke-width:1.0;"/><line style="stroke:#A80036;stroke-width:1.0;" x1="59" x2="213" y1="275.5049" y2="275.5049"/><text fill="#000000" font-family="sans-serif" font-size="13" font-weight="bold" lengthAdjust="spacing" textLength="9" x="71" y="270.4353">8</text><text fill="#000000" font-family="sans-serif" font-size="13" lengthAdjust="spacing" textLength="80" x="84" y="270.4353">DisplayData</text><polygon fill="#A80036" points="751,300.6559,761,304.6559,751,308.6559,755,304.6559" style="stroke:#A80036;stroke-width:1.0;"/><line style="stroke:#A80036;stroke-width:1.0;" x1="54" x2="757" y1="304.6559" y2="304.6559"/><text fill="#000000" font-family="sans-serif" font-size="13" font-weight="bold" lengthAdjust="spacing" textLength="9" x="61" y="299.5863">9</text><text fill="#000000" font-family="sans-serif" font-size="13" lengthAdjust="spacing" textLength="136" x="74" y="299.5863">Render(DisplayData)</text><path d="M666.5,319.6559 L742.5,319.6559 L742.5,326.6559 L732.5,336.6559 L666.5,336.6559 L666.5,319.6559 " fill="#EEEEEE" style="stroke:#000000;stroke-width:1.0;"/><rect fill="none" height="414.114" style="stroke:#000000;stroke-width:2.0;" width="594.5" x="666.5" y="319.6559"/><text fill="#000000" font-family="sans-serif" font-size="13" font-weight="bold" lengthAdjust="spacing" textLength="31" x="681.5" y="332.7373">loop</text><text fill="#000000" font-family="sans-serif" font-size="11" font-weight="bold" lengthAdjust="spacing" textLength="160" x="757.5" y="331.8808">[for each DailyPrediction]</text><path d="M686.5,343.8069 L892.5,343.8069 L892.5,350.8069 L882.5,360.8069 L686.5,360.8069 L686.5,343.8069 " fill="#EEEEEE" style="stroke:#000000;stroke-width:1.0;"/><rect fill="none" height="85.453" style="stroke:#000000;stroke-width:2.0;" width="564.5" x="686.5" y="343.8069"/><text fill="#000000" font-family="sans-serif" font-size="13" font-weight="bold" lengthAdjust="spacing" textLength="161" x="701.5" y="356.8883">Displaying Lunar Data</text><polygon fill="#A80036" points="950,383.1089,960,387.1089,950,391.1089,954,387.1089" style="stroke:#A80036;stroke-width:1.0;"/><line style="stroke:#A80036;stroke-width:1.0;" x1="763" x2="956" y1="387.1089" y2="387.1089"/><text fill="#000000" font-family="sans-serif" font-size="13" font-weight="bold" lengthAdjust="spacing" textLength="18" x="770" y="382.0393">10</text><text fill="#000000" font-family="sans-serif" font-size="13" lengthAdjust="spacing" textLength="111" x="792" y="382.0393">lunarData.visible</text><path d="M967,365.9579 L967,390.9579 L1232,390.9579 L1232,375.9579 L1222,365.9579 L967,365.9579 " fill="#FBFB77" filter="url(#f1txav3zidyd97)" style="stroke:#A80036;stroke-width:1.0;"/><path d="M1222,365.9579 L1222,375.9579 L1232,375.9579 L1222,365.9579 " fill="#FBFB77" style="stroke:#A80036;stroke-width:1.0;"/><text fill="#000000" font-family="sans-serif" font-size="13" lengthAdjust="spacing" textLength="244" x="973" y="383.0393">Need to confirm this with Christopher</text><polygon fill="#A80036" points="1063,417.2599,1073,421.2599,1063,425.2599,1067,421.2599" style="stroke:#A80036;stroke-width:1.0;"/><line style="stroke:#A80036;stroke-width:1.0;" x1="763" x2="1069" y1="421.2599" y2="421.2599"/><text fill="#000000" font-family="sans-serif" font-size="13" font-weight="bold" lengthAdjust="spacing" textLength="18" x="770" y="416.1903">11</text><text fill="#000000" font-family="sans-serif" font-size="13" lengthAdjust="spacing" textLength="42" x="792" y="416.1903">render</text><path d="M676.5,443.2599 L872.5,443.2599 L872.5,450.2599 L862.5,460.2599 L676.5,460.2599 L676.5,443.2599 " fill="#EEEEEE" style="stroke:#000000;stroke-width:1.0;"/><rect fill="none" height="164.906" style="stroke:#000000;stroke-width:2.0;" width="459" x="676.5" y="443.2599"/><text fill="#000000" font-family="sans-serif" font-size="13" font-weight="bold" lengthAdjust="spacing" textLength="151" x="691.5" y="456.3413">Displaying Tide Data</text><polygon fill="#A80036" points="950,477.5619,960,481.5619,950,485.5619,954,481.5619" style="stroke:#A80036;stroke-width:1.0;"/><line style="stroke:#A80036;stroke-width:1.0;" x1="763" x2="956" y1="481.5619" y2="481.5619"/><text fill="#000000" font-family="sans-serif" font-size="13" font-weight="bold" lengthAdjust="spacing" textLength="18" x="770" y="476.4923">12</text><text fill="#000000" font-family="sans-serif" font-size="13" lengthAdjust="spacing" textLength="143" x="792" y="476.4923">tideData.highestLevel</text><polygon fill="#A80036" points="950,506.7129,960,510.7129,950,514.7129,954,510.7129" style="stroke:#A80036;stroke-width:1.0;"/><line style="stroke:#A80036;stroke-width:1.0;" x1="763" x2="956" y1="510.7129" y2="510.7129"/><text fill="#000000" font-family="sans-serif" font-size="13" font-weight="bold" lengthAdjust="spacing" textLength="18" x="770" y="505.6433">13</text><text fill="#000000" font-family="sans-serif" font-size="13" lengthAdjust="spacing" textLength="138" x="792" y="505.6433">tideData.lowestLevel</text><polygon fill="#A80036" points="950,535.8639,960,539.8639,950,543.8639,954,539.8639" style="stroke:#A80036;stroke-width:1.0;"/><line style="stroke:#A80036;stroke-width:1.0;" x1="763" x2="956" y1="539.8639" y2="539.8639"/><text fill="#000000" font-family="sans-serif" font-size="13" font-weight="bold" lengthAdjust="spacing" textLength="18" x="770" y="534.7943">14</text><text fill="#000000" font-family="sans-serif" font-size="13" lengthAdjust="spacing" textLength="132" x="792" y="534.7943">tidaData.predictions</text><path d="M686.5,554.8639 L762.5,554.8639 L762.5,561.8639 L752.5,571.8639 L686.5,571.8639 L686.5,554.8639 " fill="#EEEEEE" style="stroke:#000000;stroke-width:1.0;"/><rect fill="none" height="46.302" style="stroke:#000000;stroke-width:2.0;" width="439" x="686.5" y="554.8639"/><text fill="#000000" font-family="sans-serif" font-size="13" font-weight="bold" lengthAdjust="spacing" textLength="31" x="701.5" y="567.9453">loop</text><text fill="#000000" font-family="sans-serif" font-size="11" font-weight="bold" lengthAdjust="spacing" textLength="251" x="777.5" y="567.0888">[for each prediction (TimeSeriesDatum)]</text><polygon fill="#A80036" points="1063,589.1659,1073,593.1659,1063,597.1659,1067,593.1659" style="stroke:#A80036;stroke-width:1.0;"/><line style="stroke:#A80036;stroke-width:1.0;" x1="763" x2="1069" y1="593.1659" y2="593.1659"/><text fill="#000000" font-family="sans-serif" font-size="13" font-weight="bold" lengthAdjust="spacing" textLength="18" x="770" y="588.0963">15</text><text fill="#000000" font-family="sans-serif" font-size="13" lengthAdjust="spacing" textLength="42" x="792" y="588.0963">render</text><path d="M686.5,622.1659 L913.5,622.1659 L913.5,629.1659 L903.5,639.1659 L686.5,639.1659 L686.5,622.1659 " fill="#EEEEEE" style="stroke:#000000;stroke-width:1.0;"/><rect fill="none" height="104.604" style="stroke:#000000;stroke-width:2.0;" width="439" x="686.5" y="622.1659"/><text fill="#000000" font-family="sans-serif" font-size="13" font-weight="bold" lengthAdjust="spacing" textLength="182" x="701.5" y="635.2473">Displaying Weather Data</text><polygon fill="#A80036" points="950,656.4679,960,660.4679,950,664.4679,954,660.4679" style="stroke:#A80036;stroke-width:1.0;"/><line style="stroke:#A80036;stroke-width:1.0;" x1="763" x2="956" y1="660.4679" y2="660.4679"/><text fill="#000000" font-family="sans-serif" font-size="13" font-weight="bold" lengthAdjust="spacing" textLength="18" x="770" y="655.3983">16</text><text fill="#000000" font-family="sans-serif" font-size="13" lengthAdjust="spacing" textLength="153" x="792" y="655.3983">weatherData.highTemp</text><polygon fill="#A80036" points="950,685.6189,960,689.6189,950,693.6189,954,689.6189" style="stroke:#A80036;stroke-width:1.0;"/><line style="stroke:#A80036;stroke-width:1.0;" x1="763" x2="956" y1="689.6189" y2="689.6189"/><text fill="#000000" font-family="sans-serif" font-size="13" font-weight="bold" lengthAdjust="spacing" textLength="18" x="770" y="684.5493">17</text><text fill="#000000" font-family="sans-serif" font-size="13" lengthAdjust="spacing" textLength="148" x="792" y="684.5493">weatherData.lowTemp</text><polygon fill="#A80036" points="1063,714.7699,1073,718.7699,1063,722.7699,1067,718.7699" style="stroke:#A80036;stroke-width:1.0;"/><line style="stroke:#A80036;stroke-width:1.0;" x1="763" x2="1069" y1="718.7699" y2="718.7699"/><text fill="#000000" font-family="sans-serif" font-size="13" font-weight="bold" lengthAdjust="spacing" textLength="18" x="770" y="713.7003">18</text><text fill="#000000" font-family="sans-serif" font-size="13" lengthAdjust="spacing" textLength="42" x="792" y="713.7003">render</text><!--MD5=[c3b67066e5a7d6585e88946bfa72b83c]
@startuml
'https://plantuml.com/sequence-diagram

autonumber

Application -> DataManager : BuildDisplayData()

DataManager -> LunarRetriever : retrieve
DataManager <- LunarRetriever : LunarData

DataManager -> TideRetriever : retrieve
DataManager <- TideRetriever : TideData

DataManager -> WeatherRetriever : retrieve
DataManager <- WeatherRetriever : WeatherData

Application <- DataManager : DisplayData

Application -> DisplayManager : Render(DisplayData)
    loop for each DailyPrediction


        group Displaying Lunar Data
            DisplayManager -> DailyPrediction : lunarData.visible
            note right: Need to confirm this with Christopher
            DisplayManager -> graphLib : render
        end

        group Displaying Tide Data
            DisplayManager -> DailyPrediction : tideData.highestLevel
            DisplayManager -> DailyPrediction : tideData.lowestLevel
            DisplayManager -> DailyPrediction : tidaData.predictions
            loop for each prediction (TimeSeriesDatum)
                DisplayManager -> graphLib : render
            end
        end


        group Displaying Weather Data
            DisplayManager -> DailyPrediction : weatherData.highTemp
            DisplayManager -> DailyPrediction : weatherData.lowTemp
            DisplayManager -> graphLib : render
        end
    end

@enduml

@startuml

autonumber

Application -> DataManager : BuildDisplayData()

DataManager -> LunarRetriever : retrieve
DataManager <- LunarRetriever : LunarData

DataManager -> TideRetriever : retrieve
DataManager <- TideRetriever : TideData

DataManager -> WeatherRetriever : retrieve
DataManager <- WeatherRetriever : WeatherData

Application <- DataManager : DisplayData

Application -> DisplayManager : Render(DisplayData)
    loop for each DailyPrediction


        group Displaying Lunar Data
            DisplayManager -> DailyPrediction : lunarData.visible
            note right: Need to confirm this with Christopher
            DisplayManager -> graphLib : render
        end

        group Displaying Tide Data
            DisplayManager -> DailyPrediction : tideData.highestLevel
            DisplayManager -> DailyPrediction : tideData.lowestLevel
            DisplayManager -> DailyPrediction : tidaData.predictions
            loop for each prediction (TimeSeriesDatum)
                DisplayManager -> graphLib : render
            end
        end


        group Displaying Weather Data
            DisplayManager -> DailyPrediction : weatherData.highTemp
            DisplayManager -> DailyPrediction : weatherData.lowTemp
            DisplayManager -> graphLib : render
        end
    end

@enduml

PlantUML version 1.2021.7(Sun May 23 05:40:07 PDT 2021)
(GPL source distribution)
Java Runtime: OpenJDK Runtime Environment
JVM: OpenJDK 64-Bit Server VM
Default Encoding: UTF-8
Language: en
Country: US
--></g></svg>