<?xml version="1.0" encoding="UTF-8" standalone="no"?><svg xmlns="http://www.w3.org/2000/svg" xmlns:xlink="http://www.w3.org/1999/xlink" contentScriptType="application/ecmascript" contentStyleType="text/css" height="546px" preserveAspectRatio="none" style="width:592px;height:546px;background:#FFFFFF;" version="1.1" viewBox="0 0 592 546" width="592px" zoomAndPan="magnify"><defs><filter height="300%" id="f10e1bovvrppil" width="300%" x="-1" y="-1"><feGaussianBlur result="blurOut" stdDeviation="2.0"/><feColorMatrix in="blurOut" result="blurOut2" type="matrix" values="0 0 0 0 0 0 0 0 0 0 0 0 0 0 0 0 0 0 .4 0"/><feOffset dx="4.0" dy="4.0" in="blurOut2" result="blurOut3"/><feBlend in="SourceGraphic" in2="blurOut3" mode="normal"/></filter></defs><g><!--MD5=[41efea40b13f25539732e82257468463]
class TimeSeriesDatum--><rect codeLine="3" fill="#FEFECE" filter="url(#f10e1bovvrppil)" height="73.6458" id="TimeSeriesDatum" style="stroke:#A80036;stroke-width:1.5;" width="211" x="194" y="459"/><ellipse cx="242.25" cy="475" fill="#ADD1B2" rx="11" ry="11" style="stroke:#A80036;stroke-width:1.0;"/><path d="M244.7344,480.875 Q244.1563,481.1875 243.5156,481.3438 Q242.875,481.5 242.1719,481.5 Q239.6563,481.5 238.3281,479.8281 Q237.0156,478.1563 237.0156,475 Q237.0156,471.8438 238.3281,470.1719 Q239.6563,468.5 242.1719,468.5 Q242.875,468.5 243.5156,468.6563 Q244.1719,468.8125 244.7344,469.125 L244.7344,471.9219 Q244.0938,471.3438 243.5,471.0781 Q242.9063,470.8125 242.2813,470.8125 Q240.9375,470.8125 240.25,471.875 Q239.5625,472.9219 239.5625,475 Q239.5625,477.0781 240.25,478.1406 Q240.9375,479.1875 242.2813,479.1875 Q242.9063,479.1875 243.5,478.9219 Q244.0938,478.6563 244.7344,478.0781 L244.7344,480.875 Z " fill="#000000"/><text fill="#000000" font-family="sans-serif" font-size="12" lengthAdjust="spacing" textLength="106" x="262.75" y="479.1543">TimeSeriesDatum</text><line style="stroke:#A80036;stroke-width:1.5;" x1="195" x2="404" y1="491" y2="491"/><text fill="#000000" font-family="sans-serif" font-size="11" lengthAdjust="spacing" textLength="199" x="200" y="505.225">timestamp : boost::gregorian::date</text><text fill="#000000" font-family="sans-serif" font-size="11" lengthAdjust="spacing" textLength="68" x="200" y="518.0478">value : float</text><line style="stroke:#A80036;stroke-width:1.5;" x1="195" x2="404" y1="524.6458" y2="524.6458"/><!--MD5=[6f866fe6fd531f0bbeeccfcfe45ad4f7]
class DisplayData--><rect codeLine="8" fill="#FEFECE" filter="url(#f10e1bovvrppil)" height="60.8229" id="DisplayData" style="stroke:#A80036;stroke-width:1.5;" width="276" x="161.5" y="7"/><ellipse cx="259.75" cy="23" fill="#ADD1B2" rx="11" ry="11" style="stroke:#A80036;stroke-width:1.0;"/><path d="M262.2344,28.875 Q261.6563,29.1875 261.0156,29.3438 Q260.375,29.5 259.6719,29.5 Q257.1563,29.5 255.8281,27.8281 Q254.5156,26.1563 254.5156,23 Q254.5156,19.8438 255.8281,18.1719 Q257.1563,16.5 259.6719,16.5 Q260.375,16.5 261.0156,16.6563 Q261.6719,16.8125 262.2344,17.125 L262.2344,19.9219 Q261.5938,19.3438 261,19.0781 Q260.4063,18.8125 259.7813,18.8125 Q258.4375,18.8125 257.75,19.875 Q257.0625,20.9219 257.0625,23 Q257.0625,25.0781 257.75,26.1406 Q258.4375,27.1875 259.7813,27.1875 Q260.4063,27.1875 261,26.9219 Q261.5938,26.6563 262.2344,26.0781 L262.2344,28.875 Z " fill="#000000"/><text fill="#000000" font-family="sans-serif" font-size="12" lengthAdjust="spacing" textLength="71" x="280.25" y="27.1543">DisplayData</text><line style="stroke:#A80036;stroke-width:1.5;" x1="162.5" x2="436.5" y1="39" y2="39"/><text fill="#000000" font-family="sans-serif" font-size="11" lengthAdjust="spacing" textLength="264" x="167.5" y="53.225">dailyPredictions : std::vector&lt;DailyPrediction&gt;</text><line style="stroke:#A80036;stroke-width:1.5;" x1="162.5" x2="436.5" y1="59.8229" y2="59.8229"/><!--MD5=[8cb3f09557db5d57493eb5f1f62e833c]
class DailyPrediction--><rect codeLine="12" fill="#FEFECE" filter="url(#f10e1bovvrppil)" height="99.2915" id="DailyPrediction" style="stroke:#A80036;stroke-width:1.5;" width="176" x="211.5" y="128"/><ellipse cx="251.25" cy="144" fill="#ADD1B2" rx="11" ry="11" style="stroke:#A80036;stroke-width:1.0;"/><path d="M253.7344,149.875 Q253.1563,150.1875 252.5156,150.3438 Q251.875,150.5 251.1719,150.5 Q248.6563,150.5 247.3281,148.8281 Q246.0156,147.1563 246.0156,144 Q246.0156,140.8438 247.3281,139.1719 Q248.6563,137.5 251.1719,137.5 Q251.875,137.5 252.5156,137.6563 Q253.1719,137.8125 253.7344,138.125 L253.7344,140.9219 Q253.0938,140.3438 252.5,140.0781 Q251.9063,139.8125 251.2813,139.8125 Q249.9375,139.8125 249.25,140.875 Q248.5625,141.9219 248.5625,144 Q248.5625,146.0781 249.25,147.1406 Q249.9375,148.1875 251.2813,148.1875 Q251.9063,148.1875 252.5,147.9219 Q253.0938,147.6563 253.7344,147.0781 L253.7344,149.875 Z " fill="#000000"/><text fill="#000000" font-family="sans-serif" font-size="12" lengthAdjust="spacing" textLength="89" x="270.75" y="148.1543">DailyPrediction</text><line style="stroke:#A80036;stroke-width:1.5;" x1="212.5" x2="386.5" y1="160" y2="160"/><text fill="#000000" font-family="sans-serif" font-size="11" lengthAdjust="spacing" textLength="164" x="217.5" y="174.225">date : boost::gregorian::date</text><text fill="#000000" font-family="sans-serif" font-size="11" lengthAdjust="spacing" textLength="125" x="217.5" y="187.0478">lunarData : LunarData</text><text fill="#000000" font-family="sans-serif" font-size="11" lengthAdjust="spacing" textLength="109" x="217.5" y="199.8707">tideData : TideData</text><text fill="#000000" font-family="sans-serif" font-size="11" lengthAdjust="spacing" textLength="158" x="217.5" y="212.6936">weatherData : WeatherData</text><line style="stroke:#A80036;stroke-width:1.5;" x1="212.5" x2="386.5" y1="219.2915" y2="219.2915"/><!--MD5=[9f9c21cbe19b10e88a716e6574e05086]
class LunarData--><rect codeLine="19" fill="#FEFECE" filter="url(#f10e1bovvrppil)" height="112.1144" id="LunarData" style="stroke:#A80036;stroke-width:1.5;" width="125" x="7" y="287"/><ellipse cx="35.5" cy="303" fill="#ADD1B2" rx="11" ry="11" style="stroke:#A80036;stroke-width:1.0;"/><path d="M37.9844,308.875 Q37.4063,309.1875 36.7656,309.3438 Q36.125,309.5 35.4219,309.5 Q32.9063,309.5 31.5781,307.8281 Q30.2656,306.1563 30.2656,303 Q30.2656,299.8438 31.5781,298.1719 Q32.9063,296.5 35.4219,296.5 Q36.125,296.5 36.7656,296.6563 Q37.4219,296.8125 37.9844,297.125 L37.9844,299.9219 Q37.3438,299.3438 36.75,299.0781 Q36.1563,298.8125 35.5313,298.8125 Q34.1875,298.8125 33.5,299.875 Q32.8125,300.9219 32.8125,303 Q32.8125,305.0781 33.5,306.1406 Q34.1875,307.1875 35.5313,307.1875 Q36.1563,307.1875 36.75,306.9219 Q37.3438,306.6563 37.9844,306.0781 L37.9844,308.875 Z " fill="#000000"/><text fill="#000000" font-family="sans-serif" font-size="12" lengthAdjust="spacing" textLength="63" x="52.5" y="307.1543">LunarData</text><line style="stroke:#A80036;stroke-width:1.5;" x1="8" x2="131" y1="319" y2="319"/><text fill="#000000" font-family="sans-serif" font-size="11" lengthAdjust="spacing" textLength="78" x="13" y="333.225">julianDay : int</text><text fill="#000000" font-family="sans-serif" font-size="11" lengthAdjust="spacing" textLength="101" x="13" y="346.0478">sunPosition : float</text><text fill="#000000" font-family="sans-serif" font-size="11" lengthAdjust="spacing" textLength="113" x="13" y="358.8707">moonPosition : float</text><text fill="#000000" font-family="sans-serif" font-size="11" lengthAdjust="spacing" textLength="73" x="13" y="371.6936">visible : float</text><text fill="#000000" font-family="sans-serif" font-size="11" lengthAdjust="spacing" textLength="75" x="13" y="384.5165">segment : int</text><line style="stroke:#A80036;stroke-width:1.5;" x1="8" x2="131" y1="391.1144" y2="391.1144"/><!--MD5=[6e20ea48e1a04a437b929bd848bad75b]
class TideData--><rect codeLine="27" fill="#FEFECE" filter="url(#f10e1bovvrppil)" height="86.4686" id="TideData" style="stroke:#A80036;stroke-width:1.5;" width="265" x="167" y="300"/><ellipse cx="268.75" cy="316" fill="#ADD1B2" rx="11" ry="11" style="stroke:#A80036;stroke-width:1.0;"/><path d="M271.2344,321.875 Q270.6563,322.1875 270.0156,322.3438 Q269.375,322.5 268.6719,322.5 Q266.1563,322.5 264.8281,320.8281 Q263.5156,319.1563 263.5156,316 Q263.5156,312.8438 264.8281,311.1719 Q266.1563,309.5 268.6719,309.5 Q269.375,309.5 270.0156,309.6563 Q270.6719,309.8125 271.2344,310.125 L271.2344,312.9219 Q270.5938,312.3438 270,312.0781 Q269.4063,311.8125 268.7813,311.8125 Q267.4375,311.8125 266.75,312.875 Q266.0625,313.9219 266.0625,316 Q266.0625,318.0781 266.75,319.1406 Q267.4375,320.1875 268.7813,320.1875 Q269.4063,320.1875 270,319.9219 Q270.5938,319.6563 271.2344,319.0781 L271.2344,321.875 Z " fill="#000000"/><text fill="#000000" font-family="sans-serif" font-size="12" lengthAdjust="spacing" textLength="53" x="289.25" y="320.1543">TideData</text><line style="stroke:#A80036;stroke-width:1.5;" x1="168" x2="431" y1="332" y2="332"/><text fill="#000000" font-family="sans-serif" font-size="11" lengthAdjust="spacing" textLength="108" x="173" y="346.225">highestLevel : float</text><text fill="#000000" font-family="sans-serif" font-size="11" lengthAdjust="spacing" textLength="103" x="173" y="359.0478">lowestLevel : float</text><text fill="#000000" font-family="sans-serif" font-size="11" lengthAdjust="spacing" textLength="253" x="173" y="371.8707">predictions : std::vector&lt;TimeSeriesDatum&gt;</text><line style="stroke:#A80036;stroke-width:1.5;" x1="168" x2="431" y1="378.4686" y2="378.4686"/><!--MD5=[dd430b671f247037c3d3af64e9fb01da]
class WeatherData--><rect codeLine="33" fill="#FEFECE" filter="url(#f10e1bovvrppil)" height="73.6458" id="WeatherData" style="stroke:#A80036;stroke-width:1.5;" width="111" x="467" y="306"/><ellipse cx="482" cy="322" fill="#ADD1B2" rx="11" ry="11" style="stroke:#A80036;stroke-width:1.0;"/><path d="M484.4844,327.875 Q483.9063,328.1875 483.2656,328.3438 Q482.625,328.5 481.9219,328.5 Q479.4063,328.5 478.0781,326.8281 Q476.7656,325.1563 476.7656,322 Q476.7656,318.8438 478.0781,317.1719 Q479.4063,315.5 481.9219,315.5 Q482.625,315.5 483.2656,315.6563 Q483.9219,315.8125 484.4844,316.125 L484.4844,318.9219 Q483.8438,318.3438 483.25,318.0781 Q482.6563,317.8125 482.0313,317.8125 Q480.6875,317.8125 480,318.875 Q479.3125,319.9219 479.3125,322 Q479.3125,324.0781 480,325.1406 Q480.6875,326.1875 482.0313,326.1875 Q482.6563,326.1875 483.25,325.9219 Q483.8438,325.6563 484.4844,325.0781 L484.4844,327.875 Z " fill="#000000"/><text fill="#000000" font-family="sans-serif" font-size="12" lengthAdjust="spacing" textLength="79" x="496" y="326.1543">WeatherData</text><line style="stroke:#A80036;stroke-width:1.5;" x1="468" x2="577" y1="338" y2="338"/><text fill="#000000" font-family="sans-serif" font-size="11" lengthAdjust="spacing" textLength="93" x="473" y="352.225">highTemp : float</text><text fill="#000000" font-family="sans-serif" font-size="11" lengthAdjust="spacing" textLength="88" x="473" y="365.0478">lowTemp : float</text><line style="stroke:#A80036;stroke-width:1.5;" x1="468" x2="577" y1="371.6458" y2="371.6458"/><!--MD5=[aa4897ff8fa2baa211771b0164f91e8a]
reverse link DisplayData to DailyPrediction--><path codeLine="38" d="M299.5,81.54 C299.5,96.26 299.5,112.82 299.5,127.95 " fill="none" id="DisplayData-backto-DailyPrediction" style="stroke:#A80036;stroke-width:1.0;"/><polygon fill="#FFFFFF" points="299.5,68.1,295.5,74.1,299.5,80.1,303.5,74.1,299.5,68.1" style="stroke:#A80036;stroke-width:1.0;"/><text fill="#000000" font-family="sans-serif" font-size="13" lengthAdjust="spacing" textLength="8" x="290.675" y="88.0734">1</text><text fill="#000000" font-family="sans-serif" font-size="13" lengthAdjust="spacing" textLength="37" x="259.8984" y="116.9989">many</text><!--MD5=[293774c5be236dd36d0ff7e382430ddf]
reverse link DailyPrediction to LunarData--><path codeLine="39" d="M220.25,234.83 C191.44,255.32 159.3,278.16 132.13,297.48 " fill="none" id="DailyPrediction-backto-LunarData" style="stroke:#A80036;stroke-width:1.0;"/><polygon fill="#A80036" points="231.12,227.11,223.9124,227.3342,221.3472,234.0736,228.5548,233.8494,231.12,227.11" style="stroke:#A80036;stroke-width:1.0;"/><!--MD5=[9739939ea0886aed13fcdefb72e4b4c6]
reverse link DailyPrediction to TideData--><path codeLine="40" d="M299.5,240.24 C299.5,260.17 299.5,281.78 299.5,299.94 " fill="none" id="DailyPrediction-backto-TideData" style="stroke:#A80036;stroke-width:1.0;"/><polygon fill="#A80036" points="299.5,227.11,295.5,233.11,299.5,239.11,303.5,233.11,299.5,227.11" style="stroke:#A80036;stroke-width:1.0;"/><!--MD5=[891ada115d4f758f644102ad708b2f09]
reverse link DailyPrediction to WeatherData--><path codeLine="41" d="M378.07,234.89 C401.15,251.58 426.4,269.94 449.5,287 C457.67,293.03 466.32,299.49 474.69,305.77 " fill="none" id="DailyPrediction-backto-WeatherData" style="stroke:#A80036;stroke-width:1.0;"/><polygon fill="#A80036" points="367.28,227.1,369.8081,233.8534,377.0144,234.1172,374.4863,227.3638,367.28,227.1" style="stroke:#A80036;stroke-width:1.0;"/><!--MD5=[c871af5636f75ca71e4bdacd901cfd02]
reverse link TideData to TimeSeriesDatum--><path codeLine="42" d="M299.5,399.1 C299.5,419 299.5,440.93 299.5,458.8 " fill="none" id="TideData-backto-TimeSeriesDatum" style="stroke:#A80036;stroke-width:1.0;"/><polygon fill="#FFFFFF" points="299.5,386.06,295.5,392.06,299.5,398.06,303.5,392.06,299.5,386.06" style="stroke:#A80036;stroke-width:1.0;"/><text fill="#000000" font-family="sans-serif" font-size="13" lengthAdjust="spacing" textLength="8" x="290.8375" y="406.4891">1</text><text fill="#000000" font-family="sans-serif" font-size="13" lengthAdjust="spacing" textLength="37" x="259.2047" y="447.9642">many</text><!--MD5=[97323c7ccf1673d367bacb169c6ed1a5]
@startuml
'https://plantuml.com/class-diagram

class TimeSeriesDatum {
    timestamp : boost::gregorian::date
    value : float
}

class DisplayData {
    dailyPredictions : std::vector<DailyPrediction>
}

class DailyPrediction {
    date : boost::gregorian::date
    lunarData : LunarData
    tideData : TideData
    weatherData : WeatherData
}

class LunarData {
    julianDay : int
    sunPosition : float
    moonPosition : float
    visible : float
    segment : int
}

class TideData {
    highestLevel : float
    lowestLevel : float
    predictions : std::vector<TimeSeriesDatum>
}

class WeatherData {
    highTemp : float
    lowTemp : float
}

DisplayData "1" o- - "many" DailyPrediction
DailyPrediction *- - LunarData
DailyPrediction *- - TideData
DailyPrediction *- - WeatherData
TideData "1" o- - "many" TimeSeriesDatum


@enduml

@startuml

class TimeSeriesDatum {
    timestamp : boost::gregorian::date
    value : float
}

class DisplayData {
    dailyPredictions : std::vector<DailyPrediction>
}

class DailyPrediction {
    date : boost::gregorian::date
    lunarData : LunarData
    tideData : TideData
    weatherData : WeatherData
}

class LunarData {
    julianDay : int
    sunPosition : float
    moonPosition : float
    visible : float
    segment : int
}

class TideData {
    highestLevel : float
    lowestLevel : float
    predictions : std::vector<TimeSeriesDatum>
}

class WeatherData {
    highTemp : float
    lowTemp : float
}

DisplayData "1" o- - "many" DailyPrediction
DailyPrediction *- - LunarData
DailyPrediction *- - TideData
DailyPrediction *- - WeatherData
TideData "1" o- - "many" TimeSeriesDatum


@enduml

PlantUML version 1.2021.7(Sun May 23 05:40:07 PDT 2021)
(GPL source distribution)
Java Runtime: OpenJDK Runtime Environment
JVM: OpenJDK 64-Bit Server VM
Default Encoding: UTF-8
Language: en
Country: US
--></g></svg>