<?xml version="1.0" encoding="UTF-8" standalone="no"?><svg xmlns="http://www.w3.org/2000/svg" xmlns:xlink="http://www.w3.org/1999/xlink" contentScriptType="application/ecmascript" contentStyleType="text/css" height="426px" preserveAspectRatio="none" style="width:684px;height:426px;background:#FFFFFF;" version="1.1" viewBox="0 0 684 426" width="684px" zoomAndPan="magnify"><defs><filter height="300%" id="f1357s3q4nxnzz" width="300%" x="-1" y="-1"><feGaussianBlur result="blurOut" stdDeviation="2.0"/><feColorMatrix in="blurOut" result="blurOut2" type="matrix" values="0 0 0 0 0 0 0 0 0 0 0 0 0 0 0 0 0 0 .4 0"/><feOffset dx="4.0" dy="4.0" in="blurOut2" result="blurOut3"/><feBlend in="SourceGraphic" in2="blurOut3" mode="normal"/></filter></defs><g><!--MD5=[41efea40b13f25539732e82257468463]
class TimeSeriesDatum--><rect codeLine="3" fill="#FEFECE" filter="url(#f1357s3q4nxnzz)" height="73.6458" id="TimeSeriesDatum" style="stroke:#A80036;stroke-width:1.5;" width="211" x="7" y="7"/><ellipse cx="55.25" cy="23" fill="#ADD1B2" rx="11" ry="11" style="stroke:#A80036;stroke-width:1.0;"/><path d="M57.7344,28.875 Q57.1563,29.1875 56.5156,29.3438 Q55.875,29.5 55.1719,29.5 Q52.6563,29.5 51.3281,27.8281 Q50.0156,26.1563 50.0156,23 Q50.0156,19.8438 51.3281,18.1719 Q52.6563,16.5 55.1719,16.5 Q55.875,16.5 56.5156,16.6563 Q57.1719,16.8125 57.7344,17.125 L57.7344,19.9219 Q57.0938,19.3438 56.5,19.0781 Q55.9063,18.8125 55.2813,18.8125 Q53.9375,18.8125 53.25,19.875 Q52.5625,20.9219 52.5625,23 Q52.5625,25.0781 53.25,26.1406 Q53.9375,27.1875 55.2813,27.1875 Q55.9063,27.1875 56.5,26.9219 Q57.0938,26.6563 57.7344,26.0781 L57.7344,28.875 Z " fill="#000000"/><text fill="#000000" font-family="sans-serif" font-size="12" lengthAdjust="spacing" textLength="106" x="75.75" y="27.1543">TimeSeriesDatum</text><line style="stroke:#A80036;stroke-width:1.5;" x1="8" x2="217" y1="39" y2="39"/><text fill="#000000" font-family="sans-serif" font-size="11" lengthAdjust="spacing" textLength="199" x="13" y="53.225">timestamp : boost::gregorian::date</text><text fill="#000000" font-family="sans-serif" font-size="11" lengthAdjust="spacing" textLength="68" x="13" y="66.0478">value : float</text><line style="stroke:#A80036;stroke-width:1.5;" x1="8" x2="217" y1="72.6458" y2="72.6458"/><!--MD5=[6f866fe6fd531f0bbeeccfcfe45ad4f7]
class DisplayData--><rect codeLine="8" fill="#FEFECE" filter="url(#f1357s3q4nxnzz)" height="60.8229" id="DisplayData" style="stroke:#A80036;stroke-width:1.5;" width="276" x="253.5" y="13.5"/><ellipse cx="351.75" cy="29.5" fill="#ADD1B2" rx="11" ry="11" style="stroke:#A80036;stroke-width:1.0;"/><path d="M354.2344,35.375 Q353.6563,35.6875 353.0156,35.8438 Q352.375,36 351.6719,36 Q349.1563,36 347.8281,34.3281 Q346.5156,32.6563 346.5156,29.5 Q346.5156,26.3438 347.8281,24.6719 Q349.1563,23 351.6719,23 Q352.375,23 353.0156,23.1563 Q353.6719,23.3125 354.2344,23.625 L354.2344,26.4219 Q353.5938,25.8438 353,25.5781 Q352.4063,25.3125 351.7813,25.3125 Q350.4375,25.3125 349.75,26.375 Q349.0625,27.4219 349.0625,29.5 Q349.0625,31.5781 349.75,32.6406 Q350.4375,33.6875 351.7813,33.6875 Q352.4063,33.6875 353,33.4219 Q353.5938,33.1563 354.2344,32.5781 L354.2344,35.375 Z " fill="#000000"/><text fill="#000000" font-family="sans-serif" font-size="12" lengthAdjust="spacing" textLength="71" x="372.25" y="33.6543">DisplayData</text><line style="stroke:#A80036;stroke-width:1.5;" x1="254.5" x2="528.5" y1="45.5" y2="45.5"/><text fill="#000000" font-family="sans-serif" font-size="11" lengthAdjust="spacing" textLength="264" x="259.5" y="59.725">dailyPredictions : std::vector&lt;DailyPrediction&gt;</text><line style="stroke:#A80036;stroke-width:1.5;" x1="254.5" x2="528.5" y1="66.3229" y2="66.3229"/><!--MD5=[8cb3f09557db5d57493eb5f1f62e833c]
class DailyPrediction--><rect codeLine="12" fill="#FEFECE" filter="url(#f1357s3q4nxnzz)" height="99.2915" id="DailyPrediction" style="stroke:#A80036;stroke-width:1.5;" width="176" x="303.5" y="141"/><ellipse cx="343.25" cy="157" fill="#ADD1B2" rx="11" ry="11" style="stroke:#A80036;stroke-width:1.0;"/><path d="M345.7344,162.875 Q345.1563,163.1875 344.5156,163.3438 Q343.875,163.5 343.1719,163.5 Q340.6563,163.5 339.3281,161.8281 Q338.0156,160.1563 338.0156,157 Q338.0156,153.8438 339.3281,152.1719 Q340.6563,150.5 343.1719,150.5 Q343.875,150.5 344.5156,150.6563 Q345.1719,150.8125 345.7344,151.125 L345.7344,153.9219 Q345.0938,153.3438 344.5,153.0781 Q343.9063,152.8125 343.2813,152.8125 Q341.9375,152.8125 341.25,153.875 Q340.5625,154.9219 340.5625,157 Q340.5625,159.0781 341.25,160.1406 Q341.9375,161.1875 343.2813,161.1875 Q343.9063,161.1875 344.5,160.9219 Q345.0938,160.6563 345.7344,160.0781 L345.7344,162.875 Z " fill="#000000"/><text fill="#000000" font-family="sans-serif" font-size="12" lengthAdjust="spacing" textLength="89" x="362.75" y="161.1543">DailyPrediction</text><line style="stroke:#A80036;stroke-width:1.5;" x1="304.5" x2="478.5" y1="173" y2="173"/><text fill="#000000" font-family="sans-serif" font-size="11" lengthAdjust="spacing" textLength="164" x="309.5" y="187.225">date : boost::gregorian::date</text><text fill="#000000" font-family="sans-serif" font-size="11" lengthAdjust="spacing" textLength="125" x="309.5" y="200.0478">lunarData : LunarData</text><text fill="#000000" font-family="sans-serif" font-size="11" lengthAdjust="spacing" textLength="109" x="309.5" y="212.8707">tideData : TideData</text><text fill="#000000" font-family="sans-serif" font-size="11" lengthAdjust="spacing" textLength="158" x="309.5" y="225.6936">weatherData : WeatherData</text><line style="stroke:#A80036;stroke-width:1.5;" x1="304.5" x2="478.5" y1="232.2915" y2="232.2915"/><!--MD5=[9f9c21cbe19b10e88a716e6574e05086]
class LunarData--><rect codeLine="19" fill="#FEFECE" filter="url(#f1357s3q4nxnzz)" height="112.1144" id="LunarData" style="stroke:#A80036;stroke-width:1.5;" width="125" x="99" y="300"/><ellipse cx="127.5" cy="316" fill="#ADD1B2" rx="11" ry="11" style="stroke:#A80036;stroke-width:1.0;"/><path d="M129.9844,321.875 Q129.4063,322.1875 128.7656,322.3438 Q128.125,322.5 127.4219,322.5 Q124.9063,322.5 123.5781,320.8281 Q122.2656,319.1563 122.2656,316 Q122.2656,312.8438 123.5781,311.1719 Q124.9063,309.5 127.4219,309.5 Q128.125,309.5 128.7656,309.6563 Q129.4219,309.8125 129.9844,310.125 L129.9844,312.9219 Q129.3438,312.3438 128.75,312.0781 Q128.1563,311.8125 127.5313,311.8125 Q126.1875,311.8125 125.5,312.875 Q124.8125,313.9219 124.8125,316 Q124.8125,318.0781 125.5,319.1406 Q126.1875,320.1875 127.5313,320.1875 Q128.1563,320.1875 128.75,319.9219 Q129.3438,319.6563 129.9844,319.0781 L129.9844,321.875 Z " fill="#000000"/><text fill="#000000" font-family="sans-serif" font-size="12" lengthAdjust="spacing" textLength="63" x="144.5" y="320.1543">LunarData</text><line style="stroke:#A80036;stroke-width:1.5;" x1="100" x2="223" y1="332" y2="332"/><text fill="#000000" font-family="sans-serif" font-size="11" lengthAdjust="spacing" textLength="78" x="105" y="346.225">julianDay : int</text><text fill="#000000" font-family="sans-serif" font-size="11" lengthAdjust="spacing" textLength="101" x="105" y="359.0478">sunPosition : float</text><text fill="#000000" font-family="sans-serif" font-size="11" lengthAdjust="spacing" textLength="113" x="105" y="371.8707">moonPosition : float</text><text fill="#000000" font-family="sans-serif" font-size="11" lengthAdjust="spacing" textLength="73" x="105" y="384.6936">visible : float</text><text fill="#000000" font-family="sans-serif" font-size="11" lengthAdjust="spacing" textLength="75" x="105" y="397.5165">segment : int</text><line style="stroke:#A80036;stroke-width:1.5;" x1="100" x2="223" y1="404.1144" y2="404.1144"/><!--MD5=[6e20ea48e1a04a437b929bd848bad75b]
class TideData--><rect codeLine="27" fill="#FEFECE" filter="url(#f1357s3q4nxnzz)" height="86.4686" id="TideData" style="stroke:#A80036;stroke-width:1.5;" width="265" x="259" y="313"/><ellipse cx="360.75" cy="329" fill="#ADD1B2" rx="11" ry="11" style="stroke:#A80036;stroke-width:1.0;"/><path d="M363.2344,334.875 Q362.6563,335.1875 362.0156,335.3438 Q361.375,335.5 360.6719,335.5 Q358.1563,335.5 356.8281,333.8281 Q355.5156,332.1563 355.5156,329 Q355.5156,325.8438 356.8281,324.1719 Q358.1563,322.5 360.6719,322.5 Q361.375,322.5 362.0156,322.6563 Q362.6719,322.8125 363.2344,323.125 L363.2344,325.9219 Q362.5938,325.3438 362,325.0781 Q361.4063,324.8125 360.7813,324.8125 Q359.4375,324.8125 358.75,325.875 Q358.0625,326.9219 358.0625,329 Q358.0625,331.0781 358.75,332.1406 Q359.4375,333.1875 360.7813,333.1875 Q361.4063,333.1875 362,332.9219 Q362.5938,332.6563 363.2344,332.0781 L363.2344,334.875 Z " fill="#000000"/><text fill="#000000" font-family="sans-serif" font-size="12" lengthAdjust="spacing" textLength="53" x="381.25" y="333.1543">TideData</text><line style="stroke:#A80036;stroke-width:1.5;" x1="260" x2="523" y1="345" y2="345"/><text fill="#000000" font-family="sans-serif" font-size="11" lengthAdjust="spacing" textLength="108" x="265" y="359.225">highestLevel : float</text><text fill="#000000" font-family="sans-serif" font-size="11" lengthAdjust="spacing" textLength="103" x="265" y="372.0478">lowestLevel : float</text><text fill="#000000" font-family="sans-serif" font-size="11" lengthAdjust="spacing" textLength="253" x="265" y="384.8707">predictions : std::vector&lt;TimeSeriesDatum&gt;</text><line style="stroke:#A80036;stroke-width:1.5;" x1="260" x2="523" y1="391.4686" y2="391.4686"/><!--MD5=[dd430b671f247037c3d3af64e9fb01da]
class WeatherData--><rect codeLine="33" fill="#FEFECE" filter="url(#f1357s3q4nxnzz)" height="73.6458" id="WeatherData" style="stroke:#A80036;stroke-width:1.5;" width="111" x="559" y="319"/><ellipse cx="574" cy="335" fill="#ADD1B2" rx="11" ry="11" style="stroke:#A80036;stroke-width:1.0;"/><path d="M576.4844,340.875 Q575.9063,341.1875 575.2656,341.3438 Q574.625,341.5 573.9219,341.5 Q571.4063,341.5 570.0781,339.8281 Q568.7656,338.1563 568.7656,335 Q568.7656,331.8438 570.0781,330.1719 Q571.4063,328.5 573.9219,328.5 Q574.625,328.5 575.2656,328.6563 Q575.9219,328.8125 576.4844,329.125 L576.4844,331.9219 Q575.8438,331.3438 575.25,331.0781 Q574.6563,330.8125 574.0313,330.8125 Q572.6875,330.8125 572,331.875 Q571.3125,332.9219 571.3125,335 Q571.3125,337.0781 572,338.1406 Q572.6875,339.1875 574.0313,339.1875 Q574.6563,339.1875 575.25,338.9219 Q575.8438,338.6563 576.4844,338.0781 L576.4844,340.875 Z " fill="#000000"/><text fill="#000000" font-family="sans-serif" font-size="12" lengthAdjust="spacing" textLength="79" x="588" y="339.1543">WeatherData</text><line style="stroke:#A80036;stroke-width:1.5;" x1="560" x2="669" y1="351" y2="351"/><text fill="#000000" font-family="sans-serif" font-size="11" lengthAdjust="spacing" textLength="93" x="565" y="365.225">highTemp : float</text><text fill="#000000" font-family="sans-serif" font-size="11" lengthAdjust="spacing" textLength="88" x="565" y="378.0478">lowTemp : float</text><line style="stroke:#A80036;stroke-width:1.5;" x1="560" x2="669" y1="384.6458" y2="384.6458"/><!--MD5=[aa4897ff8fa2baa211771b0164f91e8a]
reverse link DisplayData to DailyPrediction--><path codeLine="38" d="M391.5,87.9 C391.5,104.56 391.5,123.72 391.5,140.89 " fill="none" id="DisplayData-backto-DailyPrediction" style="stroke:#A80036;stroke-width:1.0;"/><polygon fill="#FFFFFF" points="391.5,74.59,387.5,80.59,391.5,86.59,395.5,80.59,391.5,74.59" style="stroke:#A80036;stroke-width:1.0;"/><text fill="#000000" font-family="sans-serif" font-size="13" lengthAdjust="spacing" textLength="8" x="382.675" y="94.5613">1</text><text fill="#000000" font-family="sans-serif" font-size="13" lengthAdjust="spacing" textLength="37" x="351.8984" y="129.9304">many</text><!--MD5=[293774c5be236dd36d0ff7e382430ddf]
reverse link DailyPrediction to LunarData--><path codeLine="39" d="M312.25,247.83 C283.44,268.32 251.3,291.16 224.13,310.48 " fill="none" id="DailyPrediction-backto-LunarData" style="stroke:#A80036;stroke-width:1.0;"/><polygon fill="#A80036" points="323.12,240.11,315.9124,240.3342,313.3472,247.0736,320.5548,246.8494,323.12,240.11" style="stroke:#A80036;stroke-width:1.0;"/><!--MD5=[9739939ea0886aed13fcdefb72e4b4c6]
reverse link DailyPrediction to TideData--><path codeLine="40" d="M391.5,253.24 C391.5,273.17 391.5,294.78 391.5,312.94 " fill="none" id="DailyPrediction-backto-TideData" style="stroke:#A80036;stroke-width:1.0;"/><polygon fill="#A80036" points="391.5,240.11,387.5,246.11,391.5,252.11,395.5,246.11,391.5,240.11" style="stroke:#A80036;stroke-width:1.0;"/><!--MD5=[891ada115d4f758f644102ad708b2f09]
reverse link DailyPrediction to WeatherData--><path codeLine="41" d="M470.07,247.89 C493.15,264.58 518.4,282.94 541.5,300 C549.67,306.03 558.32,312.49 566.69,318.77 " fill="none" id="DailyPrediction-backto-WeatherData" style="stroke:#A80036;stroke-width:1.0;"/><polygon fill="#A80036" points="459.28,240.1,461.8081,246.8534,469.0144,247.1172,466.4863,240.3638,459.28,240.1" style="stroke:#A80036;stroke-width:1.0;"/><!--MD5=[85ad56bfbf3de5ca6b12a1cc8eac3806]
@startuml
'https://plantuml.com/class-diagram

class TimeSeriesDatum {
    timestamp : boost::gregorian::date
    value : float
}

class DisplayData {
    dailyPredictions : std::vector<DailyPrediction>
}

class DailyPrediction {
    date : boost::gregorian::date
    lunarData : LunarData
    tideData : TideData
    weatherData : WeatherData
}

class LunarData {
    julianDay : int
    sunPosition : float
    moonPosition : float
    visible : float
    segment : int
}

class TideData {
    highestLevel : float
    lowestLevel : float
    predictions : std::vector<TimeSeriesDatum>
}

class WeatherData {
    highTemp : float
    lowTemp : float
}

DisplayData "1" o- - "many" DailyPrediction
DailyPrediction *- - LunarData
DailyPrediction *- - TideData
DailyPrediction *- - WeatherData



@enduml

@startuml

class TimeSeriesDatum {
    timestamp : boost::gregorian::date
    value : float
}

class DisplayData {
    dailyPredictions : std::vector<DailyPrediction>
}

class DailyPrediction {
    date : boost::gregorian::date
    lunarData : LunarData
    tideData : TideData
    weatherData : WeatherData
}

class LunarData {
    julianDay : int
    sunPosition : float
    moonPosition : float
    visible : float
    segment : int
}

class TideData {
    highestLevel : float
    lowestLevel : float
    predictions : std::vector<TimeSeriesDatum>
}

class WeatherData {
    highTemp : float
    lowTemp : float
}

DisplayData "1" o- - "many" DailyPrediction
DailyPrediction *- - LunarData
DailyPrediction *- - TideData
DailyPrediction *- - WeatherData



@enduml

PlantUML version 1.2021.7(Sun May 23 05:40:07 PDT 2021)
(GPL source distribution)
Java Runtime: OpenJDK Runtime Environment
JVM: OpenJDK 64-Bit Server VM
Default Encoding: UTF-8
Language: en
Country: US
--></g></svg>