<?xml version="1.0" encoding="UTF-8" standalone="no"?><svg xmlns="http://www.w3.org/2000/svg" xmlns:xlink="http://www.w3.org/1999/xlink" contentScriptType="application/ecmascript" contentStyleType="text/css" height="619px" preserveAspectRatio="none" style="width:860px;height:619px;background:#FFFFFF;" version="1.1" viewBox="0 0 860 619" width="860px" zoomAndPan="magnify"><defs><filter height="300%" id="fswe3n245v7o9" width="300%" x="-1" y="-1"><feGaussianBlur result="blurOut" stdDeviation="2.0"/><feColorMatrix in="blurOut" result="blurOut2" type="matrix" values="0 0 0 0 0 0 0 0 0 0 0 0 0 0 0 0 0 0 .4 0"/><feOffset dx="4.0" dy="4.0" in="blurOut2" result="blurOut3"/><feBlend in="SourceGraphic" in2="blurOut3" mode="normal"/></filter></defs><g><rect fill="#FFFFFF" filter="url(#fswe3n245v7o9)" height="414.114" style="stroke:#000000;stroke-width:2.0;" width="594.5" x="251.5" y="144.7499"/><rect fill="#FFFFFF" filter="url(#fswe3n245v7o9)" height="85.453" style="stroke:#000000;stroke-width:2.0;" width="564.5" x="271.5" y="168.9009"/><rect fill="#FFFFFF" filter="url(#fswe3n245v7o9)" height="164.906" style="stroke:#000000;stroke-width:2.0;" width="459" x="261.5" y="268.3539"/><rect fill="#FFFFFF" filter="url(#fswe3n245v7o9)" height="46.302" style="stroke:#000000;stroke-width:2.0;" width="439" x="271.5" y="379.9579"/><rect fill="#FFFFFF" filter="url(#fswe3n245v7o9)" height="104.604" style="stroke:#000000;stroke-width:2.0;" width="439" x="271.5" y="447.2599"/><line style="stroke:#A80036;stroke-width:1.0;stroke-dasharray:5.0,5.0;" x1="54" x2="54" y1="40.2969" y2="575.8639"/><line style="stroke:#A80036;stroke-width:1.0;stroke-dasharray:5.0,5.0;" x1="213.5" x2="213.5" y1="40.2969" y2="575.8639"/><line style="stroke:#A80036;stroke-width:1.0;stroke-dasharray:5.0,5.0;" x1="347.5" x2="347.5" y1="40.2969" y2="575.8639"/><line style="stroke:#A80036;stroke-width:1.0;stroke-dasharray:5.0,5.0;" x1="546.5" x2="546.5" y1="40.2969" y2="575.8639"/><line style="stroke:#A80036;stroke-width:1.0;stroke-dasharray:5.0,5.0;" x1="659.5" x2="659.5" y1="40.2969" y2="575.8639"/><rect fill="#FEFECE" filter="url(#fswe3n245v7o9)" height="30.2969" style="stroke:#A80036;stroke-width:1.5;" width="94" x="5" y="5"/><text fill="#000000" font-family="sans-serif" font-size="14" lengthAdjust="spacing" textLength="80" x="12" y="24.9951">Application</text><rect fill="#FEFECE" filter="url(#fswe3n245v7o9)" height="30.2969" style="stroke:#A80036;stroke-width:1.5;" width="94" x="5" y="574.8639"/><text fill="#000000" font-family="sans-serif" font-size="14" lengthAdjust="spacing" textLength="80" x="12" y="594.859">Application</text><rect fill="#FEFECE" filter="url(#fswe3n245v7o9)" height="30.2969" style="stroke:#A80036;stroke-width:1.5;" width="111" x="156.5" y="5"/><text fill="#000000" font-family="sans-serif" font-size="14" lengthAdjust="spacing" textLength="97" x="163.5" y="24.9951">DataManager</text><rect fill="#FEFECE" filter="url(#fswe3n245v7o9)" height="30.2969" style="stroke:#A80036;stroke-width:1.5;" width="111" x="156.5" y="574.8639"/><text fill="#000000" font-family="sans-serif" font-size="14" lengthAdjust="spacing" textLength="97" x="163.5" y="594.859">DataManager</text><rect fill="#FEFECE" filter="url(#fswe3n245v7o9)" height="30.2969" style="stroke:#A80036;stroke-width:1.5;" width="129" x="281.5" y="5"/><text fill="#000000" font-family="sans-serif" font-size="14" lengthAdjust="spacing" textLength="115" x="288.5" y="24.9951">DisplayManager</text><rect fill="#FEFECE" filter="url(#fswe3n245v7o9)" height="30.2969" style="stroke:#A80036;stroke-width:1.5;" width="129" x="281.5" y="574.8639"/><text fill="#000000" font-family="sans-serif" font-size="14" lengthAdjust="spacing" textLength="115" x="288.5" y="594.859">DisplayManager</text><rect fill="#FEFECE" filter="url(#fswe3n245v7o9)" height="30.2969" style="stroke:#A80036;stroke-width:1.5;" width="121" x="484.5" y="5"/><text fill="#000000" font-family="sans-serif" font-size="14" lengthAdjust="spacing" textLength="107" x="491.5" y="24.9951">DailyPrediction</text><rect fill="#FEFECE" filter="url(#fswe3n245v7o9)" height="30.2969" style="stroke:#A80036;stroke-width:1.5;" width="121" x="484.5" y="574.8639"/><text fill="#000000" font-family="sans-serif" font-size="14" lengthAdjust="spacing" textLength="107" x="491.5" y="594.859">DailyPrediction</text><rect fill="#FEFECE" filter="url(#fswe3n245v7o9)" height="30.2969" style="stroke:#A80036;stroke-width:1.5;" width="77" x="619.5" y="5"/><text fill="#000000" font-family="sans-serif" font-size="14" lengthAdjust="spacing" textLength="63" x="626.5" y="24.9951">graphLib</text><rect fill="#FEFECE" filter="url(#fswe3n245v7o9)" height="30.2969" style="stroke:#A80036;stroke-width:1.5;" width="77" x="619.5" y="574.8639"/><text fill="#000000" font-family="sans-serif" font-size="14" lengthAdjust="spacing" textLength="63" x="626.5" y="594.859">graphLib</text><polygon fill="#A80036" points="202,67.4479,212,71.4479,202,75.4479,206,71.4479" style="stroke:#A80036;stroke-width:1.0;"/><line style="stroke:#A80036;stroke-width:1.0;" x1="54" x2="208" y1="71.4479" y2="71.4479"/><text fill="#000000" font-family="sans-serif" font-size="13" font-weight="bold" lengthAdjust="spacing" textLength="9" x="61" y="66.3783">1</text><text fill="#000000" font-family="sans-serif" font-size="13" lengthAdjust="spacing" textLength="123" x="74" y="66.3783">BuildDisplayData()</text><polygon fill="#A80036" points="65,96.5989,55,100.5989,65,104.5989,61,100.5989" style="stroke:#A80036;stroke-width:1.0;"/><line style="stroke:#A80036;stroke-width:1.0;" x1="59" x2="213" y1="100.5989" y2="100.5989"/><text fill="#000000" font-family="sans-serif" font-size="13" font-weight="bold" lengthAdjust="spacing" textLength="9" x="71" y="95.5293">2</text><text fill="#000000" font-family="sans-serif" font-size="13" lengthAdjust="spacing" textLength="80" x="84" y="95.5293">DisplayData</text><polygon fill="#A80036" points="336,125.7499,346,129.7499,336,133.7499,340,129.7499" style="stroke:#A80036;stroke-width:1.0;"/><line style="stroke:#A80036;stroke-width:1.0;" x1="54" x2="342" y1="129.7499" y2="129.7499"/><text fill="#000000" font-family="sans-serif" font-size="13" font-weight="bold" lengthAdjust="spacing" textLength="9" x="61" y="124.6803">3</text><text fill="#000000" font-family="sans-serif" font-size="13" lengthAdjust="spacing" textLength="136" x="74" y="124.6803">Render(DisplayData)</text><path d="M251.5,144.7499 L327.5,144.7499 L327.5,151.7499 L317.5,161.7499 L251.5,161.7499 L251.5,144.7499 " fill="#EEEEEE" style="stroke:#000000;stroke-width:1.0;"/><rect fill="none" height="414.114" style="stroke:#000000;stroke-width:2.0;" width="594.5" x="251.5" y="144.7499"/><text fill="#000000" font-family="sans-serif" font-size="13" font-weight="bold" lengthAdjust="spacing" textLength="31" x="266.5" y="157.8313">loop</text><text fill="#000000" font-family="sans-serif" font-size="11" font-weight="bold" lengthAdjust="spacing" textLength="160" x="342.5" y="156.9748">[for each DailyPrediction]</text><path d="M271.5,168.9009 L477.5,168.9009 L477.5,175.9009 L467.5,185.9009 L271.5,185.9009 L271.5,168.9009 " fill="#EEEEEE" style="stroke:#000000;stroke-width:1.0;"/><rect fill="none" height="85.453" style="stroke:#000000;stroke-width:2.0;" width="564.5" x="271.5" y="168.9009"/><text fill="#000000" font-family="sans-serif" font-size="13" font-weight="bold" lengthAdjust="spacing" textLength="161" x="286.5" y="181.9823">Displaying Lunar Data</text><polygon fill="#A80036" points="535,208.2029,545,212.2029,535,216.2029,539,212.2029" style="stroke:#A80036;stroke-width:1.0;"/><line style="stroke:#A80036;stroke-width:1.0;" x1="348" x2="541" y1="212.2029" y2="212.2029"/><text fill="#000000" font-family="sans-serif" font-size="13" font-weight="bold" lengthAdjust="spacing" textLength="9" x="355" y="207.1333">4</text><text fill="#000000" font-family="sans-serif" font-size="13" lengthAdjust="spacing" textLength="111" x="368" y="207.1333">lunarData.visible</text><path d="M552,191.0519 L552,216.0519 L817,216.0519 L817,201.0519 L807,191.0519 L552,191.0519 " fill="#FBFB77" filter="url(#fswe3n245v7o9)" style="stroke:#A80036;stroke-width:1.0;"/><path d="M807,191.0519 L807,201.0519 L817,201.0519 L807,191.0519 " fill="#FBFB77" style="stroke:#A80036;stroke-width:1.0;"/><text fill="#000000" font-family="sans-serif" font-size="13" lengthAdjust="spacing" textLength="244" x="558" y="208.1333">Need to confirm this with Christopher</text><polygon fill="#A80036" points="648,242.3539,658,246.3539,648,250.3539,652,246.3539" style="stroke:#A80036;stroke-width:1.0;"/><line style="stroke:#A80036;stroke-width:1.0;" x1="348" x2="654" y1="246.3539" y2="246.3539"/><text fill="#000000" font-family="sans-serif" font-size="13" font-weight="bold" lengthAdjust="spacing" textLength="9" x="355" y="241.2843">5</text><text fill="#000000" font-family="sans-serif" font-size="13" lengthAdjust="spacing" textLength="42" x="368" y="241.2843">render</text><path d="M261.5,268.3539 L457.5,268.3539 L457.5,275.3539 L447.5,285.3539 L261.5,285.3539 L261.5,268.3539 " fill="#EEEEEE" style="stroke:#000000;stroke-width:1.0;"/><rect fill="none" height="164.906" style="stroke:#000000;stroke-width:2.0;" width="459" x="261.5" y="268.3539"/><text fill="#000000" font-family="sans-serif" font-size="13" font-weight="bold" lengthAdjust="spacing" textLength="151" x="276.5" y="281.4353">Displaying Tide Data</text><polygon fill="#A80036" points="535,302.6559,545,306.6559,535,310.6559,539,306.6559" style="stroke:#A80036;stroke-width:1.0;"/><line style="stroke:#A80036;stroke-width:1.0;" x1="348" x2="541" y1="306.6559" y2="306.6559"/><text fill="#000000" font-family="sans-serif" font-size="13" font-weight="bold" lengthAdjust="spacing" textLength="9" x="355" y="301.5863">6</text><text fill="#000000" font-family="sans-serif" font-size="13" lengthAdjust="spacing" textLength="143" x="368" y="301.5863">tideData.highestLevel</text><polygon fill="#A80036" points="535,331.8069,545,335.8069,535,339.8069,539,335.8069" style="stroke:#A80036;stroke-width:1.0;"/><line style="stroke:#A80036;stroke-width:1.0;" x1="348" x2="541" y1="335.8069" y2="335.8069"/><text fill="#000000" font-family="sans-serif" font-size="13" font-weight="bold" lengthAdjust="spacing" textLength="9" x="355" y="330.7373">7</text><text fill="#000000" font-family="sans-serif" font-size="13" lengthAdjust="spacing" textLength="138" x="368" y="330.7373">tideData.lowestLevel</text><polygon fill="#A80036" points="535,360.9579,545,364.9579,535,368.9579,539,364.9579" style="stroke:#A80036;stroke-width:1.0;"/><line style="stroke:#A80036;stroke-width:1.0;" x1="348" x2="541" y1="364.9579" y2="364.9579"/><text fill="#000000" font-family="sans-serif" font-size="13" font-weight="bold" lengthAdjust="spacing" textLength="9" x="355" y="359.8883">8</text><text fill="#000000" font-family="sans-serif" font-size="13" lengthAdjust="spacing" textLength="132" x="368" y="359.8883">tidaData.predictions</text><path d="M271.5,379.9579 L347.5,379.9579 L347.5,386.9579 L337.5,396.9579 L271.5,396.9579 L271.5,379.9579 " fill="#EEEEEE" style="stroke:#000000;stroke-width:1.0;"/><rect fill="none" height="46.302" style="stroke:#000000;stroke-width:2.0;" width="439" x="271.5" y="379.9579"/><text fill="#000000" font-family="sans-serif" font-size="13" font-weight="bold" lengthAdjust="spacing" textLength="31" x="286.5" y="393.0393">loop</text><text fill="#000000" font-family="sans-serif" font-size="11" font-weight="bold" lengthAdjust="spacing" textLength="251" x="362.5" y="392.1828">[for each prediction (TimeSeriesDatum)]</text><polygon fill="#A80036" points="648,414.2599,658,418.2599,648,422.2599,652,418.2599" style="stroke:#A80036;stroke-width:1.0;"/><line style="stroke:#A80036;stroke-width:1.0;" x1="348" x2="654" y1="418.2599" y2="418.2599"/><text fill="#000000" font-family="sans-serif" font-size="13" font-weight="bold" lengthAdjust="spacing" textLength="9" x="355" y="413.1903">9</text><text fill="#000000" font-family="sans-serif" font-size="13" lengthAdjust="spacing" textLength="42" x="368" y="413.1903">render</text><path d="M271.5,447.2599 L498.5,447.2599 L498.5,454.2599 L488.5,464.2599 L271.5,464.2599 L271.5,447.2599 " fill="#EEEEEE" style="stroke:#000000;stroke-width:1.0;"/><rect fill="none" height="104.604" style="stroke:#000000;stroke-width:2.0;" width="439" x="271.5" y="447.2599"/><text fill="#000000" font-family="sans-serif" font-size="13" font-weight="bold" lengthAdjust="spacing" textLength="182" x="286.5" y="460.3413">Displaying Weather Data</text><polygon fill="#A80036" points="535,481.5619,545,485.5619,535,489.5619,539,485.5619" style="stroke:#A80036;stroke-width:1.0;"/><line style="stroke:#A80036;stroke-width:1.0;" x1="348" x2="541" y1="485.5619" y2="485.5619"/><text fill="#000000" font-family="sans-serif" font-size="13" font-weight="bold" lengthAdjust="spacing" textLength="18" x="355" y="480.4923">10</text><text fill="#000000" font-family="sans-serif" font-size="13" lengthAdjust="spacing" textLength="153" x="377" y="480.4923">weatherData.highTemp</text><polygon fill="#A80036" points="535,510.7129,545,514.7129,535,518.7129,539,514.7129" style="stroke:#A80036;stroke-width:1.0;"/><line style="stroke:#A80036;stroke-width:1.0;" x1="348" x2="541" y1="514.7129" y2="514.7129"/><text fill="#000000" font-family="sans-serif" font-size="13" font-weight="bold" lengthAdjust="spacing" textLength="18" x="355" y="509.6433">11</text><text fill="#000000" font-family="sans-serif" font-size="13" lengthAdjust="spacing" textLength="148" x="377" y="509.6433">weatherData.lowTemp</text><polygon fill="#A80036" points="648,539.8639,658,543.8639,648,547.8639,652,543.8639" style="stroke:#A80036;stroke-width:1.0;"/><line style="stroke:#A80036;stroke-width:1.0;" x1="348" x2="654" y1="543.8639" y2="543.8639"/><text fill="#000000" font-family="sans-serif" font-size="13" font-weight="bold" lengthAdjust="spacing" textLength="18" x="355" y="538.7943">12</text><text fill="#000000" font-family="sans-serif" font-size="13" lengthAdjust="spacing" textLength="42" x="377" y="538.7943">render</text><!--MD5=[62b65572844eab042a0389451728a911]
@startuml
'https://plantuml.com/sequence-diagram

autonumber

Application -> DataManager : BuildDisplayData()
Application <- DataManager : DisplayData

Application -> DisplayManager : Render(DisplayData)
    loop for each DailyPrediction


        group Displaying Lunar Data
            DisplayManager -> DailyPrediction : lunarData.visible
            note right: Need to confirm this with Christopher
            DisplayManager -> graphLib : render
        end

        group Displaying Tide Data
            DisplayManager -> DailyPrediction : tideData.highestLevel
            DisplayManager -> DailyPrediction : tideData.lowestLevel
            DisplayManager -> DailyPrediction : tidaData.predictions
            loop for each prediction (TimeSeriesDatum)
                DisplayManager -> graphLib : render
            end
        end


        group Displaying Weather Data
            DisplayManager -> DailyPrediction : weatherData.highTemp
            DisplayManager -> DailyPrediction : weatherData.lowTemp
            DisplayManager -> graphLib : render
        end
    end

@enduml

@startuml

autonumber

Application -> DataManager : BuildDisplayData()
Application <- DataManager : DisplayData

Application -> DisplayManager : Render(DisplayData)
    loop for each DailyPrediction


        group Displaying Lunar Data
            DisplayManager -> DailyPrediction : lunarData.visible
            note right: Need to confirm this with Christopher
            DisplayManager -> graphLib : render
        end

        group Displaying Tide Data
            DisplayManager -> DailyPrediction : tideData.highestLevel
            DisplayManager -> DailyPrediction : tideData.lowestLevel
            DisplayManager -> DailyPrediction : tidaData.predictions
            loop for each prediction (TimeSeriesDatum)
                DisplayManager -> graphLib : render
            end
        end


        group Displaying Weather Data
            DisplayManager -> DailyPrediction : weatherData.highTemp
            DisplayManager -> DailyPrediction : weatherData.lowTemp
            DisplayManager -> graphLib : render
        end
    end

@enduml

PlantUML version 1.2021.7(Sun May 23 05:40:07 PDT 2021)
(GPL source distribution)
Java Runtime: OpenJDK Runtime Environment
JVM: OpenJDK 64-Bit Server VM
Default Encoding: UTF-8
Language: en
Country: US
--></g></svg>