<?xml version="1.0" encoding="UTF-8" standalone="no"?><svg xmlns="http://www.w3.org/2000/svg" xmlns:xlink="http://www.w3.org/1999/xlink" contentScriptType="application/ecmascript" contentStyleType="text/css" height="740px" preserveAspectRatio="none" style="width:1656px;height:740px;background:#FFFFFF;" version="1.1" viewBox="0 0 1656 740" width="1656px" zoomAndPan="magnify"><defs><filter height="300%" id="frp75gb11llci" width="300%" x="-1" y="-1"><feGaussianBlur result="blurOut" stdDeviation="2.0"/><feColorMatrix in="blurOut" result="blurOut2" type="matrix" values="0 0 0 0 0 0 0 0 0 0 0 0 0 0 0 0 0 0 .4 0"/><feOffset dx="4.0" dy="4.0" in="blurOut2" result="blurOut3"/><feBlend in="SourceGraphic" in2="blurOut3" mode="normal"/></filter></defs><g><rect fill="#FFFFFF" filter="url(#frp75gb11llci)" height="75.3984" style="stroke:#000000;stroke-width:2.0;" width="531" x="934" y="173.8281"/><rect fill="#FFFFFF" filter="url(#frp75gb11llci)" height="358.4609" style="stroke:#000000;stroke-width:2.0;" width="1632" x="10" y="321.4922"/><line style="stroke:#A80036;stroke-width:1.0;stroke-dasharray:5.0,5.0;" x1="390" x2="390" y1="40.2969" y2="696.9531"/><line style="stroke:#A80036;stroke-width:1.0;stroke-dasharray:5.0,5.0;" x1="588.5" x2="588.5" y1="40.2969" y2="696.9531"/><line style="stroke:#A80036;stroke-width:1.0;stroke-dasharray:5.0,5.0;" x1="749.5" x2="749.5" y1="40.2969" y2="696.9531"/><line style="stroke:#A80036;stroke-width:1.0;stroke-dasharray:5.0,5.0;" x1="1006" x2="1006" y1="40.2969" y2="696.9531"/><line style="stroke:#A80036;stroke-width:1.0;stroke-dasharray:5.0,5.0;" x1="1389" x2="1389" y1="40.2969" y2="696.9531"/><line style="stroke:#A80036;stroke-width:1.0;stroke-dasharray:5.0,5.0;" x1="1548" x2="1548" y1="40.2969" y2="696.9531"/><rect fill="#FEFECE" filter="url(#frp75gb11llci)" height="30.2969" style="stroke:#A80036;stroke-width:1.5;" width="92" x="342" y="5"/><text fill="#000000" font-family="sans-serif" font-size="14" lengthAdjust="spacing" textLength="78" x="349" y="24.9951">Predictions</text><rect fill="#FEFECE" filter="url(#frp75gb11llci)" height="30.2969" style="stroke:#A80036;stroke-width:1.5;" width="92" x="342" y="695.9531"/><text fill="#000000" font-family="sans-serif" font-size="14" lengthAdjust="spacing" textLength="78" x="349" y="715.9482">Predictions</text><rect fill="#FEFECE" filter="url(#frp75gb11llci)" height="30.2969" style="stroke:#A80036;stroke-width:1.5;" width="153" x="510.5" y="5"/><text fill="#000000" font-family="sans-serif" font-size="14" lengthAdjust="spacing" textLength="139" x="517.5" y="24.9951">WeatherPredictions</text><rect fill="#FEFECE" filter="url(#frp75gb11llci)" height="30.2969" style="stroke:#A80036;stroke-width:1.5;" width="153" x="510.5" y="695.9531"/><text fill="#000000" font-family="sans-serif" font-size="14" lengthAdjust="spacing" textLength="139" x="517.5" y="715.9482">WeatherPredictions</text><rect fill="#FEFECE" filter="url(#frp75gb11llci)" height="30.2969" style="stroke:#A80036;stroke-width:1.5;" width="141" x="677.5" y="5"/><text fill="#000000" font-family="sans-serif" font-size="14" lengthAdjust="spacing" textLength="127" x="684.5" y="24.9951">WeatherRetriever</text><rect fill="#FEFECE" filter="url(#frp75gb11llci)" height="30.2969" style="stroke:#A80036;stroke-width:1.5;" width="141" x="677.5" y="695.9531"/><text fill="#000000" font-family="sans-serif" font-size="14" lengthAdjust="spacing" textLength="127" x="684.5" y="715.9482">WeatherRetriever</text><rect fill="#FEFECE" filter="url(#frp75gb11llci)" height="30.2969" style="stroke:#A80036;stroke-width:1.5;" width="120" x="944" y="5"/><text fill="#000000" font-family="sans-serif" font-size="14" lengthAdjust="spacing" textLength="106" x="951" y="24.9951">WeatherParser</text><rect fill="#FEFECE" filter="url(#frp75gb11llci)" height="30.2969" style="stroke:#A80036;stroke-width:1.5;" width="120" x="944" y="695.9531"/><text fill="#000000" font-family="sans-serif" font-size="14" lengthAdjust="spacing" textLength="106" x="951" y="715.9482">WeatherParser</text><rect fill="#FEFECE" filter="url(#frp75gb11llci)" height="30.2969" style="stroke:#A80036;stroke-width:1.5;" width="128" x="1323" y="5"/><text fill="#000000" font-family="sans-serif" font-size="14" lengthAdjust="spacing" textLength="114" x="1330" y="24.9951">TimeSeriesData</text><rect fill="#FEFECE" filter="url(#frp75gb11llci)" height="30.2969" style="stroke:#A80036;stroke-width:1.5;" width="128" x="1323" y="695.9531"/><text fill="#000000" font-family="sans-serif" font-size="14" lengthAdjust="spacing" textLength="114" x="1330" y="715.9482">TimeSeriesData</text><rect fill="#FEFECE" filter="url(#frp75gb11llci)" height="30.2969" style="stroke:#A80036;stroke-width:1.5;" width="163" x="1465" y="5"/><text fill="#000000" font-family="sans-serif" font-size="14" lengthAdjust="spacing" textLength="149" x="1472" y="24.9951">TimeSeriesDataPoint</text><rect fill="#FEFECE" filter="url(#frp75gb11llci)" height="30.2969" style="stroke:#A80036;stroke-width:1.5;" width="163" x="1465" y="695.9531"/><text fill="#000000" font-family="sans-serif" font-size="14" lengthAdjust="spacing" textLength="149" x="1472" y="715.9482">TimeSeriesDataPoint</text><polygon fill="#A80036" points="577,67.4297,587,71.4297,577,75.4297,581,71.4297" style="stroke:#A80036;stroke-width:1.0;"/><line style="stroke:#A80036;stroke-width:1.0;" x1="390" x2="583" y1="71.4297" y2="71.4297"/><text fill="#000000" font-family="sans-serif" font-size="13" font-weight="bold" lengthAdjust="spacing" textLength="9" x="397" y="66.3638">1</text><text fill="#000000" font-family="sans-serif" font-size="13" lengthAdjust="spacing" textLength="31" x="410" y="66.3638">Load</text><polygon fill="#A80036" points="738,96.5625,748,100.5625,738,104.5625,742,100.5625" style="stroke:#A80036;stroke-width:1.0;"/><line style="stroke:#A80036;stroke-width:1.0;" x1="589" x2="744" y1="100.5625" y2="100.5625"/><text fill="#000000" font-family="sans-serif" font-size="13" font-weight="bold" lengthAdjust="spacing" textLength="9" x="596" y="95.4966">2</text><text fill="#000000" font-family="sans-serif" font-size="13" lengthAdjust="spacing" textLength="55" x="609" y="95.4966">Retrieve</text><polygon fill="#A80036" points="600,125.6953,590,129.6953,600,133.6953,596,129.6953" style="stroke:#A80036;stroke-width:1.0;"/><line style="stroke:#A80036;stroke-width:1.0;" x1="594" x2="749" y1="129.6953" y2="129.6953"/><text fill="#000000" font-family="sans-serif" font-size="13" font-weight="bold" lengthAdjust="spacing" textLength="9" x="606" y="124.6294">3</text><text fill="#000000" font-family="sans-serif" font-size="13" lengthAdjust="spacing" textLength="65" x="619" y="124.6294">std::string</text><polygon fill="#A80036" points="994,154.8281,1004,158.8281,994,162.8281,998,158.8281" style="stroke:#A80036;stroke-width:1.0;"/><line style="stroke:#A80036;stroke-width:1.0;" x1="589" x2="1000" y1="158.8281" y2="158.8281"/><text fill="#000000" font-family="sans-serif" font-size="13" font-weight="bold" lengthAdjust="spacing" textLength="9" x="596" y="153.7622">4</text><text fill="#000000" font-family="sans-serif" font-size="13" lengthAdjust="spacing" textLength="83" x="609" y="153.7622">Parse(string)</text><path d="M934,173.8281 L1010,173.8281 L1010,180.8281 L1000,190.8281 L934,190.8281 L934,173.8281 " fill="#EEEEEE" style="stroke:#000000;stroke-width:1.0;"/><rect fill="none" height="75.3984" style="stroke:#000000;stroke-width:2.0;" width="531" x="934" y="173.8281"/><text fill="#000000" font-family="sans-serif" font-size="13" font-weight="bold" lengthAdjust="spacing" textLength="31" x="949" y="186.895">loop</text><text fill="#000000" font-family="sans-serif" font-size="11" font-weight="bold" lengthAdjust="spacing" textLength="341" x="1025" y="186.0386">[for "temperature" and "apparentTemperature" in map]</text><polygon fill="#A80036" points="1377,208.0938,1387,212.0938,1377,216.0938,1381,212.0938" style="stroke:#A80036;stroke-width:1.0;"/><line style="stroke:#A80036;stroke-width:1.0;" x1="1006" x2="1383" y1="212.0938" y2="212.0938"/><text fill="#000000" font-family="sans-serif" font-size="13" font-weight="bold" lengthAdjust="spacing" textLength="9" x="1013" y="207.0278">5</text><text fill="#000000" font-family="sans-serif" font-size="13" lengthAdjust="spacing" textLength="346" x="1026" y="207.0278">unrollDataPoints(std::vector&lt;TimeSeriesDataPoint&gt;)</text><polygon fill="#A80036" points="1017,237.2266,1007,241.2266,1017,245.2266,1013,241.2266" style="stroke:#A80036;stroke-width:1.0;"/><line style="stroke:#A80036;stroke-width:1.0;" x1="1011" x2="1388" y1="241.2266" y2="241.2266"/><text fill="#000000" font-family="sans-serif" font-size="13" font-weight="bold" lengthAdjust="spacing" textLength="9" x="1023" y="236.1606">6</text><text fill="#000000" font-family="sans-serif" font-size="13" lengthAdjust="spacing" textLength="228" x="1036" y="236.1606">std::vector&lt;TimeSeriesDataPoint&gt;</text><polygon fill="#A80036" points="600,273.3594,590,277.3594,600,281.3594,596,277.3594" style="stroke:#A80036;stroke-width:1.0;"/><line style="stroke:#A80036;stroke-width:1.0;" x1="594" x2="1005" y1="277.3594" y2="277.3594"/><text fill="#000000" font-family="sans-serif" font-size="13" font-weight="bold" lengthAdjust="spacing" textLength="9" x="606" y="272.2935">7</text><text fill="#000000" font-family="sans-serif" font-size="13" lengthAdjust="spacing" textLength="380" x="619" y="272.2935">std::map&lt;std::string, std::vector&lt;TimeSeriesDataPoint&gt;&gt;</text><polygon fill="#A80036" points="401,302.4922,391,306.4922,401,310.4922,397,306.4922" style="stroke:#A80036;stroke-width:1.0;"/><line style="stroke:#A80036;stroke-width:1.0;" x1="395" x2="588" y1="306.4922" y2="306.4922"/><text fill="#000000" font-family="sans-serif" font-size="13" font-weight="bold" lengthAdjust="spacing" textLength="9" x="407" y="301.4263">8</text><text fill="#000000" font-family="sans-serif" font-size="13" lengthAdjust="spacing" textLength="127" x="420" y="301.4263">WeatherPredictions</text><path d="M10,321.4922 L86,321.4922 L86,328.4922 L76,338.4922 L10,338.4922 L10,321.4922 " fill="#EEEEEE" style="stroke:#000000;stroke-width:1.0;"/><rect fill="none" height="358.4609" style="stroke:#000000;stroke-width:2.0;" width="1632" x="10" y="321.4922"/><text fill="#000000" font-family="sans-serif" font-size="13" font-weight="bold" lengthAdjust="spacing" textLength="31" x="25" y="334.5591">loop</text><text fill="#000000" font-family="sans-serif" font-size="11" font-weight="bold" lengthAdjust="spacing" textLength="224" x="101" y="333.7026">[config-&gt;getDaysToDisplay() times]</text><polygon fill="#A80036" points="577,355.7578,587,359.7578,577,363.7578,581,359.7578" style="stroke:#A80036;stroke-width:1.0;"/><line style="stroke:#A80036;stroke-width:1.0;" x1="390" x2="583" y1="359.7578" y2="359.7578"/><text fill="#000000" font-family="sans-serif" font-size="13" font-weight="bold" lengthAdjust="spacing" textLength="9" x="397" y="354.6919">9</text><text fill="#000000" font-family="sans-serif" font-size="13" lengthAdjust="spacing" textLength="162" x="410" y="354.6919">PredictionsForDate(date)</text><polygon fill="#A80036" points="1536.5,384.8906,1546.5,388.8906,1536.5,392.8906,1540.5,388.8906" style="stroke:#A80036;stroke-width:1.0;"/><line style="stroke:#A80036;stroke-width:1.0;" x1="589" x2="1542.5" y1="388.8906" y2="388.8906"/><text fill="#000000" font-family="sans-serif" font-size="13" font-weight="bold" lengthAdjust="spacing" textLength="18" x="596" y="383.8247">10</text><text fill="#000000" font-family="sans-serif" font-size="13" lengthAdjust="spacing" textLength="370" x="618" y="383.8247">ValuesForDate(std::vector&lt;TimeSeriesDataPoint&gt;, date)</text><polygon fill="#A80036" points="600,419.0234,590,423.0234,600,427.0234,596,423.0234" style="stroke:#A80036;stroke-width:1.0;"/><line style="stroke:#A80036;stroke-width:1.0;" x1="594" x2="1547.5" y1="423.0234" y2="423.0234"/><text fill="#000000" font-family="sans-serif" font-size="13" font-weight="bold" lengthAdjust="spacing" textLength="18" x="606" y="417.9575">11</text><text fill="#000000" font-family="sans-serif" font-size="13" lengthAdjust="spacing" textLength="228" x="628" y="417.9575">std::vector&lt;TimeSeriesDataPoint&gt;</text><path d="M471,401.8906 L471,426.8906 L580,426.8906 L580,411.8906 L570,401.8906 L471,401.8906 " fill="#FBFB77" filter="url(#frp75gb11llci)" style="stroke:#A80036;stroke-width:1.0;"/><path d="M570,401.8906 L570,411.8906 L580,411.8906 L570,401.8906 " fill="#FBFB77" style="stroke:#A80036;stroke-width:1.0;"/><text fill="#000000" font-family="sans-serif" font-size="13" lengthAdjust="spacing" textLength="88" x="477" y="418.9575">temperatures</text><polygon fill="#A80036" points="1536.5,453.1563,1546.5,457.1563,1536.5,461.1563,1540.5,457.1563" style="stroke:#A80036;stroke-width:1.0;"/><line style="stroke:#A80036;stroke-width:1.0;" x1="589" x2="1542.5" y1="457.1563" y2="457.1563"/><text fill="#000000" font-family="sans-serif" font-size="13" font-weight="bold" lengthAdjust="spacing" textLength="18" x="596" y="452.0903">12</text><text fill="#000000" font-family="sans-serif" font-size="13" lengthAdjust="spacing" textLength="370" x="618" y="452.0903">ValuesForDate(std::vector&lt;TimeSeriesDataPoint&gt;, date)</text><polygon fill="#A80036" points="600,487.2891,590,491.2891,600,495.2891,596,491.2891" style="stroke:#A80036;stroke-width:1.0;"/><line style="stroke:#A80036;stroke-width:1.0;" x1="594" x2="1547.5" y1="491.2891" y2="491.2891"/><text fill="#000000" font-family="sans-serif" font-size="13" font-weight="bold" lengthAdjust="spacing" textLength="18" x="606" y="486.2231">13</text><text fill="#000000" font-family="sans-serif" font-size="13" lengthAdjust="spacing" textLength="228" x="628" y="486.2231">std::vector&lt;TimeSeriesDataPoint&gt;</text><path d="M410,470.1563 L410,495.1563 L580,495.1563 L580,480.1563 L570,470.1563 L410,470.1563 " fill="#FBFB77" filter="url(#frp75gb11llci)" style="stroke:#A80036;stroke-width:1.0;"/><path d="M570,470.1563 L570,480.1563 L580,480.1563 L570,470.1563 " fill="#FBFB77" style="stroke:#A80036;stroke-width:1.0;"/><text fill="#000000" font-family="sans-serif" font-size="13" lengthAdjust="spacing" textLength="149" x="416" y="487.2231">apparentTemperatures</text><polygon fill="#A80036" points="1536.5,521.4219,1546.5,525.4219,1536.5,529.4219,1540.5,525.4219" style="stroke:#A80036;stroke-width:1.0;"/><line style="stroke:#A80036;stroke-width:1.0;" x1="589" x2="1542.5" y1="525.4219" y2="525.4219"/><text fill="#000000" font-family="sans-serif" font-size="13" font-weight="bold" lengthAdjust="spacing" textLength="18" x="596" y="520.356">14</text><text fill="#000000" font-family="sans-serif" font-size="13" lengthAdjust="spacing" textLength="298" x="618" y="520.356">MinValue(std::vector&lt;TimeSeriesDataPoint&gt;)</text><polygon fill="#A80036" points="600,555.5547,590,559.5547,600,563.5547,596,559.5547" style="stroke:#A80036;stroke-width:1.0;"/><line style="stroke:#A80036;stroke-width:1.0;" x1="594" x2="1547.5" y1="559.5547" y2="559.5547"/><text fill="#000000" font-family="sans-serif" font-size="13" font-weight="bold" lengthAdjust="spacing" textLength="18" x="606" y="554.4888">15</text><text fill="#000000" font-family="sans-serif" font-size="13" lengthAdjust="spacing" textLength="207" x="628" y="554.4888">MinValue(TimeSeriesDataPoint)</text><path d="M447,538.4219 L447,563.4219 L580,563.4219 L580,548.4219 L570,538.4219 L447,538.4219 " fill="#FBFB77" filter="url(#frp75gb11llci)" style="stroke:#A80036;stroke-width:1.0;"/><path d="M570,538.4219 L570,548.4219 L580,548.4219 L570,538.4219 " fill="#FBFB77" style="stroke:#A80036;stroke-width:1.0;"/><text fill="#000000" font-family="sans-serif" font-size="13" lengthAdjust="spacing" textLength="112" x="453" y="555.4888">highTemperature</text><polygon fill="#A80036" points="1536.5,589.6875,1546.5,593.6875,1536.5,597.6875,1540.5,593.6875" style="stroke:#A80036;stroke-width:1.0;"/><line style="stroke:#A80036;stroke-width:1.0;" x1="589" x2="1542.5" y1="593.6875" y2="593.6875"/><text fill="#000000" font-family="sans-serif" font-size="13" font-weight="bold" lengthAdjust="spacing" textLength="18" x="596" y="588.6216">16</text><text fill="#000000" font-family="sans-serif" font-size="13" lengthAdjust="spacing" textLength="298" x="618" y="588.6216">MinValue(std::vector&lt;TimeSeriesDataPoint&gt;)</text><polygon fill="#A80036" points="600,623.8203,590,627.8203,600,631.8203,596,627.8203" style="stroke:#A80036;stroke-width:1.0;"/><line style="stroke:#A80036;stroke-width:1.0;" x1="594" x2="1547.5" y1="627.8203" y2="627.8203"/><text fill="#000000" font-family="sans-serif" font-size="13" font-weight="bold" lengthAdjust="spacing" textLength="18" x="606" y="622.7544">17</text><text fill="#000000" font-family="sans-serif" font-size="13" lengthAdjust="spacing" textLength="207" x="628" y="622.7544">MinValue(TimeSeriesDataPoint)</text><path d="M452,606.6875 L452,631.6875 L580,631.6875 L580,616.6875 L570,606.6875 L452,606.6875 " fill="#FBFB77" filter="url(#frp75gb11llci)" style="stroke:#A80036;stroke-width:1.0;"/><path d="M570,606.6875 L570,616.6875 L580,616.6875 L570,606.6875 " fill="#FBFB77" style="stroke:#A80036;stroke-width:1.0;"/><text fill="#000000" font-family="sans-serif" font-size="13" lengthAdjust="spacing" textLength="107" x="458" y="623.7544">lowTemperature</text><polygon fill="#A80036" points="401,662.9531,391,666.9531,401,670.9531,397,666.9531" style="stroke:#A80036;stroke-width:1.0;"/><line style="stroke:#A80036;stroke-width:1.0;" x1="395" x2="588" y1="666.9531" y2="666.9531"/><text fill="#000000" font-family="sans-serif" font-size="13" font-weight="bold" lengthAdjust="spacing" textLength="18" x="407" y="661.8872">18</text><text fill="#000000" font-family="sans-serif" font-size="13" lengthAdjust="spacing" textLength="86" x="429" y="661.8872">WeatherData</text><path d="M20,645.8203 L20,670.8203 L381,670.8203 L381,655.8203 L371,645.8203 L20,645.8203 " fill="#FBFB77" filter="url(#frp75gb11llci)" style="stroke:#A80036;stroke-width:1.0;"/><path d="M371,645.8203 L371,655.8203 L381,655.8203 L371,645.8203 " fill="#FBFB77" style="stroke:#A80036;stroke-width:1.0;"/><text fill="#000000" font-family="sans-serif" font-size="13" lengthAdjust="spacing" textLength="340" x="26" y="662.8872">WeatherData instance appended to DailyPredictions</text><!--MD5=[aac04fe8b6eb03e1ffd5e7919162ce09]
@startuml
'https://plantuml.com/sequence-diagram

autonumber

Predictions -> WeatherPredictions : Load
WeatherPredictions -> WeatherRetriever : Retrieve
WeatherPredictions <- WeatherRetriever : std::string

WeatherPredictions -> WeatherParser : Parse(string)
loop for "temperature" and "apparentTemperature" in map
    WeatherParser -> TimeSeriesData : unrollDataPoints(std::vector<TimeSeriesDataPoint>)
    WeatherParser <- TimeSeriesData : std::vector<TimeSeriesDataPoint>
end
WeatherPredictions <- WeatherParser : std::map<std::string, std::vector<TimeSeriesDataPoint>>

Predictions <- WeatherPredictions : WeatherPredictions

loop config->getDaysToDisplay() times
    Predictions -> WeatherPredictions : PredictionsForDate(date)

    WeatherPredictions -> TimeSeriesDataPoint : ValuesForDate(std::vector<TimeSeriesDataPoint>, date)
    WeatherPredictions <- TimeSeriesDataPoint : std::vector<TimeSeriesDataPoint>
    note left : temperatures

    WeatherPredictions -> TimeSeriesDataPoint : ValuesForDate(std::vector<TimeSeriesDataPoint>, date)
    WeatherPredictions <- TimeSeriesDataPoint : std::vector<TimeSeriesDataPoint>
    note left : apparentTemperatures

    WeatherPredictions -> TimeSeriesDataPoint : MinValue(std::vector<TimeSeriesDataPoint>)
    WeatherPredictions <- TimeSeriesDataPoint : MinValue(TimeSeriesDataPoint)
    note left : highTemperature

    WeatherPredictions -> TimeSeriesDataPoint : MinValue(std::vector<TimeSeriesDataPoint>)
    WeatherPredictions <- TimeSeriesDataPoint : MinValue(TimeSeriesDataPoint)
    note left : lowTemperature

    Predictions <- WeatherPredictions : WeatherData

    note left : WeatherData instance appended to DailyPredictions
end

@enduml

@startuml

autonumber

Predictions -> WeatherPredictions : Load
WeatherPredictions -> WeatherRetriever : Retrieve
WeatherPredictions <- WeatherRetriever : std::string

WeatherPredictions -> WeatherParser : Parse(string)
loop for "temperature" and "apparentTemperature" in map
    WeatherParser -> TimeSeriesData : unrollDataPoints(std::vector<TimeSeriesDataPoint>)
    WeatherParser <- TimeSeriesData : std::vector<TimeSeriesDataPoint>
end
WeatherPredictions <- WeatherParser : std::map<std::string, std::vector<TimeSeriesDataPoint>>

Predictions <- WeatherPredictions : WeatherPredictions

loop config->getDaysToDisplay() times
    Predictions -> WeatherPredictions : PredictionsForDate(date)

    WeatherPredictions -> TimeSeriesDataPoint : ValuesForDate(std::vector<TimeSeriesDataPoint>, date)
    WeatherPredictions <- TimeSeriesDataPoint : std::vector<TimeSeriesDataPoint>
    note left : temperatures

    WeatherPredictions -> TimeSeriesDataPoint : ValuesForDate(std::vector<TimeSeriesDataPoint>, date)
    WeatherPredictions <- TimeSeriesDataPoint : std::vector<TimeSeriesDataPoint>
    note left : apparentTemperatures

    WeatherPredictions -> TimeSeriesDataPoint : MinValue(std::vector<TimeSeriesDataPoint>)
    WeatherPredictions <- TimeSeriesDataPoint : MinValue(TimeSeriesDataPoint)
    note left : highTemperature

    WeatherPredictions -> TimeSeriesDataPoint : MinValue(std::vector<TimeSeriesDataPoint>)
    WeatherPredictions <- TimeSeriesDataPoint : MinValue(TimeSeriesDataPoint)
    note left : lowTemperature

    Predictions <- WeatherPredictions : WeatherData

    note left : WeatherData instance appended to DailyPredictions
end

@enduml

PlantUML version 1.2021.11(Sat Oct 02 06:26:11 PDT 2021)
(GPL source distribution)
Java Runtime: OpenJDK Runtime Environment
JVM: OpenJDK 64-Bit Server VM
Default Encoding: UTF-8
Language: en
Country: CA
--></g></svg>